<?xml version="1.0" standalone="no"?>
<!DOCTYPE svg PUBLIC "-//W3C//DTD SVG 1.1//EN" "http://www.w3.org/Graphics/SVG/1.1/DTD/svg11.dtd" >
<svg xmlns="http://www.w3.org/2000/svg">
<metadata>Generated by IcoMoon</metadata>
<defs>
<font id="icomoon" horiz-adv-x="1024">
<font-face units-per-em="1024" ascent="960" descent="-64" />
<missing-glyph horiz-adv-x="1024" />
<glyph unicode="&#x20;" horiz-adv-x="512" d="" />
<glyph unicode="&#xe900;" glyph-name="budget" d="M271.498 767.12v55.714c11.814-3.872 19.24-11.666 19.24-18.894 0-8.854 7.178-16.034 16.034-16.034s16.034 7.178 16.034 16.034c0 25.568-21.536 46.396-51.308 51.966v2.548c0 8.854-7.178 16.034-16.034 16.034s-16.034-7.178-16.034-16.034v-2.548c-29.77-5.572-51.308-26.4-51.308-51.966 0-35.724 28.532-50.738 51.308-59.38v-55.716c-11.814 3.872-19.24 11.666-19.24 18.894 0 8.854-7.178 16.034-16.034 16.034s-16.034-7.178-16.034-16.034c0-25.568 21.536-46.396 51.308-51.966v-2.548c0-8.854 7.178-16.034 16.034-16.034s16.034 7.178 16.034 16.034v2.548c29.77 5.572 51.308 26.4 51.308 51.966 0 35.726-28.532 50.74-51.308 59.382zM239.432 779.542c-15.984 7.834-19.24 14.676-19.24 24.398 0 7.228 7.426 15.022 19.24 18.894v-43.292zM271.498 688.846v43.292c15.984-7.834 19.24-14.676 19.24-24.398 0-7.228-7.426-15.022-19.24-18.894zM512 840.284h-136.818c-8.854 0-16.034-7.178-16.034-16.034 0-8.854 7.178-16.034 16.034-16.034h136.818c8.854 0 16.034 7.178 16.034 16.034 0 8.854-7.18 16.034-16.034 16.034zM392.284 703.464h-17.102c-8.854 0-16.034-7.178-16.034-16.034s7.178-16.034 16.034-16.034h17.102c8.854 0 16.034 7.178 16.034 16.034s-7.18 16.034-16.034 16.034zM683.024 583.752h-478.866c-8.854 0-16.034-7.178-16.034-16.034s7.178-16.034 16.034-16.034h478.866c8.854 0 16.034 7.178 16.034 16.034s-7.18 16.034-16.034 16.034zM358.078 481.138h-51.308c-8.854 0-16.034-7.178-16.034-16.034s7.178-16.034 16.034-16.034h51.308c8.854 0 16.034 7.178 16.034 16.034s-7.178 16.034-16.034 16.034zM238.362 481.138h-34.204c-8.854 0-16.034-7.178-16.034-16.034s7.178-16.034 16.034-16.034h34.204c8.854 0 16.034 7.178 16.034 16.034s-7.18 16.034-16.034 16.034zM358.078 412.728h-51.308c-8.854 0-16.034-7.178-16.034-16.034 0-8.854 7.178-16.034 16.034-16.034h51.308c8.854 0 16.034 7.178 16.034 16.034s-7.178 16.034-16.034 16.034zM238.362 412.728h-34.204c-8.854 0-16.034-7.178-16.034-16.034 0-8.854 7.178-16.034 16.034-16.034h34.204c8.854 0 16.034 7.178 16.034 16.034s-7.18 16.034-16.034 16.034zM358.078 344.318h-51.308c-8.854 0-16.034-7.178-16.034-16.034s7.178-16.034 16.034-16.034h51.308c8.854 0 16.034 7.178 16.034 16.034s-7.178 16.034-16.034 16.034zM238.362 344.318h-34.204c-8.854 0-16.034-7.178-16.034-16.034s7.178-16.034 16.034-16.034h34.204c8.854 0 16.034 7.178 16.034 16.034s-7.18 16.034-16.034 16.034zM358.078 275.91h-51.308c-8.854 0-16.034-7.178-16.034-16.034s7.178-16.034 16.034-16.034h51.308c8.854 0 16.034 7.178 16.034 16.034s-7.178 16.034-16.034 16.034zM238.362 275.91h-34.204c-8.854 0-16.034-7.178-16.034-16.034s7.178-16.034 16.034-16.034h34.204c8.854 0 16.034 7.178 16.034 16.034s-7.18 16.034-16.034 16.034zM358.078 207.5h-51.308c-8.854 0-16.034-7.178-16.034-16.034s7.178-16.034 16.034-16.034h51.308c8.854 0 16.034 7.178 16.034 16.034s-7.178 16.034-16.034 16.034zM238.362 207.5h-34.204c-8.854 0-16.034-7.178-16.034-16.034s7.178-16.034 16.034-16.034h34.204c8.854 0 16.034 7.178 16.034 16.034s-7.18 16.034-16.034 16.034zM563.308 703.464h-17.102c-8.854 0-16.034-7.178-16.034-16.034s7.178-16.034 16.034-16.034h17.102c8.854 0 16.034 7.178 16.034 16.034s-7.18 16.034-16.034 16.034zM648.818 703.464h-17.102c-8.854 0-16.034-7.178-16.034-16.034s7.178-16.034 16.034-16.034h17.102c8.854 0 16.034 7.178 16.034 16.034s-7.178 16.034-16.034 16.034zM477.796 703.464h-17.102c-8.854 0-16.034-7.178-16.034-16.034s7.178-16.034 16.034-16.034h17.102c8.854 0 16.034 7.178 16.034 16.034s-7.18 16.034-16.034 16.034zM546.204 771.874h-171.024c-8.854 0-16.034-7.178-16.034-16.034s7.178-16.034 16.034-16.034h171.024c8.854 0 16.034 7.178 16.034 16.034s-7.178 16.034-16.034 16.034zM854.048 515.342h-69.478v257.6c0 4.252-1.688 8.33-4.696 11.336l-171.026 171.026c-3.006 3.008-7.084 4.696-11.336 4.696h-444.662c-27.702 0-50.238-22.536-50.238-50.238v-820.91c0-27.702 22.536-50.238 50.238-50.238h257.604v-35.274c0-37.132 30.21-67.34 67.34-67.34h376.252c37.132 0 67.34 30.21 67.34 67.34v444.662c0.002 37.132-30.208 67.34-67.338 67.34zM613.546 905.26l116.284-116.284h-81.010c-19.45 0-35.274 15.824-35.274 35.274v81.010zM410.454 448.002v-377.32h-257.604c-10.020 0-18.172 8.152-18.172 18.172v820.908c0 10.020 8.152 18.172 18.172 18.172h428.628v-103.684c0-37.132 30.21-67.34 67.34-67.34h103.684v-241.566h-274.706c-37.132-0.002-67.342-30.21-67.342-67.342zM889.322 3.34c0-19.45-15.824-35.274-35.274-35.274h-376.252c-19.45 0-35.274 15.824-35.274 35.274v444.662c0 19.45 15.824 35.274 35.274 35.274h376.252c19.45 0 35.274-15.824 35.274-35.274v-444.662zM819.842 446.934h-307.842c-18.272 0-33.136-14.864-33.136-33.136v-68.41c0-18.272 14.864-33.136 33.136-33.136h307.842c18.272 0 33.136 14.864 33.136 33.136v68.41c0 18.272-14.864 33.136-33.136 33.136zM820.912 345.388c0-0.59-0.478-1.068-1.068-1.068h-307.844c-0.59 0-1.068 0.478-1.068 1.068v68.41c0 0.59 0.478 1.068 1.068 1.068h307.842c0.59 0 1.068-0.478 1.068-1.068v-68.41zM546.204 258.808h-34.204c-18.272 0-33.136-14.864-33.136-33.136v-34.204c0-18.272 14.864-33.136 33.136-33.136h34.204c18.272 0 33.136 14.864 33.136 33.136v34.204c0 18.272-14.864 33.136-33.136 33.136zM547.274 191.466c0-0.59-0.478-1.068-1.068-1.068h-34.206c-0.59 0-1.068 0.478-1.068 1.068v34.204c0 0.59 0.478 1.068 1.068 1.068h34.204c0.59 0 1.068-0.478 1.068-1.068v-34.204zM819.842 258.808h-34.204c-18.272 0-33.136-14.864-33.136-33.136v-34.204c0-18.272 14.864-33.136 33.136-33.136h34.204c18.272 0 33.136 14.864 33.136 33.136v34.204c0 18.272-14.864 33.136-33.136 33.136zM820.912 191.466c0-0.59-0.478-1.068-1.068-1.068h-34.204c-0.59 0-1.068 0.478-1.068 1.068v34.204c0 0.59 0.478 1.068 1.068 1.068h34.204c0.59 0 1.068-0.478 1.068-1.068v-34.204zM683.024 258.808h-34.204c-18.272 0-33.136-14.864-33.136-33.136v-34.204c0-18.272 14.864-33.136 33.136-33.136h34.204c18.272 0 33.136 14.864 33.136 33.136v34.204c0 18.272-14.864 33.136-33.136 33.136zM684.092 191.466c0-0.59-0.478-1.068-1.068-1.068h-34.204c-0.59 0-1.068 0.478-1.068 1.068v34.204c0 0.59 0.478 1.068 1.068 1.068h34.204c0.59 0 1.068-0.478 1.068-1.068v-34.204zM546.204 121.988h-34.204c-18.272 0-33.136-14.864-33.136-33.136v-34.204c0-18.272 14.864-33.136 33.136-33.136h34.204c18.272 0 33.136 14.864 33.136 33.136v34.204c0 18.272-14.864 33.136-33.136 33.136zM547.274 54.648c0-0.59-0.478-1.068-1.068-1.068h-34.206c-0.59 0-1.068 0.478-1.068 1.068v34.204c0 0.59 0.478 1.068 1.068 1.068h34.204c0.59 0 1.068-0.478 1.068-1.068v-34.204zM819.842 121.988h-34.204c-18.272 0-33.136-14.864-33.136-33.136v-34.204c0-18.272 14.864-33.136 33.136-33.136h34.204c18.272 0 33.136 14.864 33.136 33.136v34.204c0 18.272-14.864 33.136-33.136 33.136zM820.912 54.648c0-0.59-0.478-1.068-1.068-1.068h-34.204c-0.59 0-1.068 0.478-1.068 1.068v34.204c0 0.59 0.478 1.068 1.068 1.068h34.204c0.59 0 1.068-0.478 1.068-1.068v-34.204zM683.024 121.988h-34.204c-18.272 0-33.136-14.864-33.136-33.136v-34.204c0-18.272 14.864-33.136 33.136-33.136h34.204c18.272 0 33.136 14.864 33.136 33.136v34.204c0 18.272-14.864 33.136-33.136 33.136zM684.092 54.648c0-0.59-0.478-1.068-1.068-1.068h-34.204c-0.59 0-1.068 0.478-1.068 1.068v34.204c0 0.59 0.478 1.068 1.068 1.068h34.204c0.59 0 1.068-0.478 1.068-1.068v-34.204z" />
<glyph unicode="&#xe901;" glyph-name="builder" d="M1022.122 477.27c-0.426 1.024-0.854 1.962-1.45 2.944-1.024 1.706-2.346 3.158-3.84 4.522-0.598 0.554-0.854 1.322-1.536 1.792-0.298 0.214-0.726 0.214-1.024 0.426-0.384 0.256-0.598 0.64-1.024 0.896l-95.786 54.742c12.8 12.33 21.206 29.014 21.206 47.872 0 25.472-14.208 48.426-37.034 59.904l-156.33 78.166 18.134 45.354 12.288 6.144c6.358-3.84 13.696-5.93 21.334-5.93 3.882 0 7.85 0.512 11.776 1.622l164.438 47.018c29.862 8.576 50.726 36.224 50.726 67.284 0 38.572-31.402 69.974-69.974 69.974h-19.626c-15.872 0-31.402-5.462-43.734-15.318l-119.638-95.702c-9.898-7.936-14.762-19.37-15.19-31.19l-18.73-9.344c-4.694-2.346-8.362-6.314-10.282-11.178l-19.84-49.578-59.606 29.782c-45.526 22.784-103.894 10.454-136.362-28.502l-181.76-218.112-313.386-83.584c-1.194-0.342-2.090-1.066-3.2-1.578-0.64-0.298-1.408-0.17-2.048-0.554-0.384-0.214-0.554-0.682-0.896-0.896-2.688-1.792-5.034-3.968-6.656-6.698-0.17-0.298-0.256-0.598-0.426-0.896-1.408-2.646-2.134-5.59-2.304-8.662 0-0.47-0.342-0.854-0.342-1.322v-298.668c0-7.638 4.096-14.72 10.752-18.518l298.666-170.666c3.286-1.878 6.954-2.816 10.582-2.816 2.090 0 4.266 0.298 6.358 0.982l682.666 213.334c8.918 2.774 14.976 11.008 14.976 20.352v298.666c0 0.726-0.426 1.322-0.47 2.048-0.212 2.048-0.64 3.968-1.408 5.888zM917.376 911.36c4.778 3.84 10.838 5.974 17.024 5.974h19.67c15.062 0 27.306-12.246 27.306-27.306 0-12.118-8.15-22.912-19.798-26.24l-153.13-43.776c-0.042 0.086-0.042 0.128-0.042 0.214-0.47 0.982-1.322 1.578-1.92 2.432l110.89 88.702zM543.83 721.664c13.27 15.872 32.726 25.002 53.418 25.002 10.71 0 21.462-2.56 31.19-7.296l62.678-31.318-4.31-10.752-207.146-124.33c-10.070-6.058-13.354-19.158-7.296-29.27 4.010-6.698 11.050-10.368 18.304-10.368 3.754 0 7.552 0.982 10.966 3.072l213.334 128c4.010 2.39 7.082 6.016 8.832 10.368l5.632 14.080 153.216-76.586c8.278-4.182 13.44-12.502 13.44-21.93 0-11.178-7.594-20.864-18.432-23.594l-10.368-2.602c-0.042 0-0.128-0.042-0.17-0.042l-574.166-143.53 250.878 301.096zM298.666-5.888l-256 146.262v249.514l256-146.262v-249.514zM322.518 279.126l-245.504 140.288 204.97 54.656-63.702-76.416c-5.888-7.126-6.57-17.194-1.664-25.002 3.926-6.314 10.838-9.984 18.048-9.984 1.706 0 3.456 0.214 5.206 0.682l71.68 17.92 61.482-36.906c3.456-2.048 7.254-3.030 10.966-3.030 7.21 0 14.294 3.67 18.304 10.326 6.058 10.112 2.816 23.21-7.296 29.27l-24.96 14.976 82.006 20.48 48.982-29.354c3.456-2.048 7.254-3.030 10.966-3.030 7.21 0 14.294 3.67 18.304 10.326 6.058 10.112 2.816 23.21-7.296 29.27l-12.416 7.424 82.048 20.522 36.352-21.846c3.498-2.048 7.296-3.030 11.008-3.030 7.21 0 14.294 3.67 18.304 10.326 6.016 10.070 2.816 23.082-7.168 29.184l82.048 20.522 23.85-14.294c3.456-2.090 7.254-3.072 10.966-3.072 7.21 0 14.294 3.67 18.304 10.326 3.882 6.486 3.584 14.080 0.426 20.394l82.902 20.736 79.958-45.696-627.074-195.968zM981.334 186.368l-640-200.022v253.996l640 199.978v-253.952z" />
<glyph unicode="&#xe902;" glyph-name="carpentry" d="M680.162 668.034c-8.4 0-15.208-6.81-15.208-15.208v-399.982c0-8.398 6.808-15.208 15.208-15.208s15.208 6.81 15.208 15.208v399.982c0 8.4-6.806 15.208-15.208 15.208zM1015.418 262.766l-43.22 50.22 26.846 60.578c2.378 5.37 1.454 11.628-2.378 16.082l-43.22 50.224 26.844 60.572c2.38 5.37 1.456 11.63-2.376 16.082l-43.22 50.216 26.846 60.58c2.378 5.37 1.454 11.63-2.378 16.082l-43.22 50.226 26.844 60.584c2.378 5.37 1.454 11.63-2.378 16.080l-43.22 50.226 26.844 60.59c2.378 5.37 1.454 11.63-2.376 16.080l-49.508 57.528c-2.892 3.352-7.102 5.284-11.532 5.284h-180.454c-8.4 0-15.208-6.81-15.208-15.208v-241.268c0-8.398 6.808-15.208 15.208-15.208s15.208 6.81 15.208 15.208v226.060h158.27l38.672-44.946-26.844-60.592c-2.378-5.37-1.454-11.63 2.378-16.080l43.22-50.226-26.844-60.584c-2.378-5.37-1.454-11.63 2.378-16.080l43.22-50.224-26.846-60.58c-2.378-5.37-1.454-11.63 2.378-16.082l43.22-50.216-26.844-60.57c-2.38-5.37-1.456-11.63 2.376-16.082l43.22-50.224-26.846-60.58c-2.378-5.37-1.454-11.63 2.378-16.082l49.494-57.508c3.008-3.496 7.258-5.286 11.534-5.286 3.512 0 7.044 1.21 9.916 3.68 6.38 5.476 7.096 15.078 1.618 21.444zM1003.566 229.104h-353.822c-8.4 0-15.208-6.81-15.208-15.208v-169.1c0-59.99 48.806-108.796 108.796-108.796h166.646c59.99 0 108.796 48.806 108.796 108.796v169.1c0 8.398-6.808 15.208-15.208 15.208zM988.358 44.796c0-43.218-35.16-78.38-78.38-78.38h-166.646c-43.218 0-78.38 35.16-78.38 78.38v153.892h323.406v-153.892zM936.65 131.77h-219.99c-8.4 0-15.208-6.81-15.208-15.208v-71.768c0-23.092 18.788-41.88 41.88-41.88h166.646c23.094 0 41.88 18.786 41.88 41.88v71.768c0 8.4-6.806 15.208-15.208 15.208zM921.444 44.796c0-6.322-5.142-11.464-11.464-11.464h-166.646c-6.322 0-11.464 5.142-11.464 11.464v56.56h189.576v-56.56zM101.34 956.7h-57.16c-21.66 0-39.28-17.62-39.28-39.28v-147.34c0-21.658 17.618-39.28 39.28-39.28h57.16c21.66 0 39.28 17.62 39.28 39.28v147.34c0 21.66-17.62 39.28-39.28 39.28zM101.34 761.218h-57.16c-4.886 0-8.864 3.976-8.864 8.864v147.34c0 4.886 3.976 8.864 8.864 8.864h57.16c4.886 0 8.864-3.976 8.864-8.864v-147.34h0.002c-0.002-4.888-3.978-8.864-8.866-8.864zM444.6 956.7h-205.766c-44.838 0-81.32-36.48-81.32-81.322v-63.254c0-44.842 36.48-81.322 81.32-81.322h196.42c8.4 0 15.208 6.81 15.208 15.208v73.66c42.852-5.558 78.47-36.746 89.064-79.638 1.676-6.79 7.77-11.562 14.764-11.562h48.882c8.4 0 15.208 6.81 15.208 15.208v39.24c0.002 95.826-77.956 173.782-173.78 173.782zM587.966 758.886h-22.306c-18.724 54.778-70.154 92.088-128.962 92.088h-1.444c-8.4 0-15.208-6.81-15.208-15.208v-74.548h-181.212c-28.070 0-50.904 22.836-50.904 50.906v63.256c0 28.070 22.836 50.906 50.904 50.906h205.766c79.052 0 143.366-64.314 143.366-143.366v-24.034zM380.348 161.138c8.4 0 15.208 6.81 15.208 15.208v529.108c0 8.398-6.81 15.208-15.208 15.208-8.4 0-15.208-6.81-15.208-15.208v-369.482h-92.366v369.482c0 8.398-6.808 15.208-15.208 15.208s-15.208-6.81-15.208-15.208v-754.246c0-8.398 6.808-15.208 15.208-15.208h122.782c8.4 0 15.208 6.81 15.208 15.208v174.442c0 8.398-6.808 15.208-15.208 15.208s-15.208-6.81-15.208-15.208v-159.236h-92.366v339.14h92.366v-129.21c0-8.396 6.806-15.206 15.208-15.206z" />
<glyph unicode="&#xe903;" glyph-name="electricity" d="M988.585 173.091c47.22 47.22 47.22 123.9 0 170.91-47.22 47.22-123.9 47.22-170.91 0l-64.144-64.144c-17.76-17.76-46.802-17.76-64.562 0l-114.497 114.706c-7.104 7.104-16.715 11.074-26.535 11.074-10.029 0-19.64-3.97-26.535-11.074-31.341-31.341-72.919-48.682-117.423-48.682s-86.082 17.342-117.423 48.682l-103.633 103.633 234.636 234.636 103.633-103.633c28.833-28.833 45.966-67.069 48.264-107.603 1.254-20.058 17.76-35.519 37.609-35.519 0.627 0 1.463 0 2.298 0 20.685 1.254 36.564 19.013 35.31 39.698-3.343 59.129-28.415 114.706-70.203 156.494l-103.633 103.633 11.492 11.492c14.626 14.626 14.626 38.444 0 53.279-14.626 14.626-38.444 14.626-53.279 0l-73.755-73.755-127.869 127.869c-14.626 14.626-38.444 14.626-53.279 0-14.626-14.626-14.626-38.444 0-53.279l127.869-127.869-109.901-109.901-127.869 127.869c-14.626 14.626-38.444 14.626-53.279 0-14.626-14.626-14.626-38.444 0-53.279l128.078-127.869-73.755-73.755c-14.626-14.626-14.626-38.444 0-53.279 7.313-7.313 16.924-11.074 26.535-11.074s19.222 3.761 26.535 11.074l11.492 11.492 103.633-103.633c45.548-45.548 106.14-70.621 170.493-70.621 51.607 0 100.917 16.088 141.868 46.175l90.052-90.052c23.61-23.61 54.533-35.31 85.455-35.31s61.845 11.7 85.455 35.31l64.144 64.144c17.76 17.76 46.802 17.76 64.562 0s17.76-46.802 0-64.562l-64.144-64.144c-22.774-22.774-35.31-53.070-35.31-85.455s12.536-62.681 35.31-85.455c7.313-7.313 16.924-11.074 26.535-11.074s19.222 3.761 26.535 11.074c14.626 14.626 14.626 38.444 0 53.279-8.566 8.566-13.372 20.058-13.372 32.176s4.806 23.61 13.372 32.176l64.144 64.144z" />
<glyph unicode="&#xe904;" glyph-name="envelop" d="M981.812 777.332h-939.624c-23.3 0-42.188-18.888-42.188-42.188v-574.288c0-23.3 18.888-42.188 42.188-42.188h939.624c23.3 0 42.188 18.888 42.188 42.188v574.288c0 23.3-18.888 42.188-42.188 42.188zM42.188 744.2h939.624c3.965-0.019 7.455-2.615 8.614-6.406l-478.426-298.851-478.426 298.851c1.16 3.791 4.65 6.386 8.614 6.406zM33.132 700.024l344.131-214.916-344.131-273.008v487.924zM990.868 161.077c0-5.003-4.056-9.056-9.056-9.056h-939.624c-5 0-9.056 4.056-9.056 9.056v8.835l373.95 295.538 96.083-60.079c5.398-3.404 12.273-3.404 17.67 0l96.083 60.079 373.95-295.538v-8.835zM990.868 212.1l-345.015 272.124 345.015 213.812v-485.936z" />
<glyph unicode="&#xe905;" glyph-name="minus" d="M0 472.381h1024v-48.762h-1024v48.762z" />
<glyph unicode="&#xe906;" glyph-name="painter" d="M1015.212 619.988l-86.33 86.328c-0.026 0.026-0.048 0.056-0.074 0.082s-0.056 0.048-0.082 0.074l-158.31 158.306c-0.010 0.010-0.018 0.020-0.026 0.030-0.010 0.010-0.020 0.018-0.030 0.026l-86.382 86.38c-11.716 11.716-30.712 11.716-42.428 0l-239.066-239.060c-0.004-0.004-0.006-0.008-0.010-0.010l-100.8-100.798c-0.008-0.008-0.012-0.016-0.020-0.026-7.654-7.668-10.726-19.082-7.496-29.826l41.818-139.080c5.578-18.552-0.166-38.862-14.634-51.742l-206.304-183.684c-28.672-25.528-51.616-57.758-66.352-93.204l-44.782-107.71c-7.898-18.998-3.6-40.676 10.95-55.224 9.71-9.708 22.592-14.85 35.734-14.85 6.552 0 13.172 1.28 19.492 3.908l107.776 44.82c35.376 14.714 67.55 37.602 93.046 66.196l183.964 206.302c12.872 14.436 33.162 20.174 51.684 14.616l138.954-41.674c10.742-3.22 22.142-0.148 29.806 7.5 0.008 0.008 0.018 0.012 0.026 0.020l339.876 339.868c5.626 5.628 8.788 13.258 8.788 21.214 0 7.96-3.162 15.59-8.788 21.218zM654.122 301.332l-288.804 288.8 58.382 58.38 288.806-288.798-58.384-58.382zM523.786 329.314c-40.758 12.224-85.386-0.398-113.702-32.156l-183.966-206.304c-19.536-21.91-44.194-39.452-71.302-50.726l-86.774-36.086 36.050 86.708c11.294 27.164 28.876 51.862 50.848 71.424l206.304 183.682c31.83 28.338 44.466 73.020 32.196 113.834l-7.51 24.978 162.852-162.848-24.996 7.494zM754.934 402.14l-288.806 288.8 196.638 196.632 43.98-43.98-105.52-105.518c-11.716-11.716-11.716-30.712 0-42.428 5.86-5.858 13.536-8.788 21.214-8.788s15.356 2.93 21.214 8.786l105.522 105.52 115.988-115.986-33.512-33.512c-11.716-11.716-11.716-30.712 0-42.428 5.86-5.858 13.536-8.788 21.214-8.788s15.356 2.93 21.214 8.786l33.514 33.514 43.98-43.98-196.64-196.63z" />
<glyph unicode="&#xe907;" glyph-name="plumbing" d="M976 752h-48v32h16c8.832 0 16 7.168 16 16v64c0 8.832-7.168 16-16 16h-16v48c0 8.832-7.168 16-16 16h-160c-8.832 0-16-7.168-16-16v-48h-16c-8.832 0-16-7.168-16-16v-64c0-8.832 7.168-16 16-16h16v-32h-48c-8.832 0-16-7.168-16-16v-64c0-8.832 7.168-16 16-16h48v-192c0-35.296-28.704-64-64-64s-64 28.704-64 64v224c0 141.152-114.848 256-256 256s-256-114.848-256-256v-192h-48c-8.832 0-16-7.168-16-16v-64c0-8.832 7.168-16 16-16h48v-32h-16c-8.832 0-16-7.168-16-16v-64c0-8.832 7.168-16 16-16h16v-48c0-8.832 7.168-16 16-16h160c8.832 0 16 7.168 16 16v48h16c8.832 0 16 7.168 16 16v64c0 8.832-7.168 16-16 16h-16v32h48c8.832 0 16 7.168 16 16v64c0 8.832-7.168 16-16 16h-48v192c0 35.296 28.704 64 64 64s64-28.704 64-64v-224c0-141.152 114.848-256 256-256s256 114.848 256 256v192h48c8.832 0 16 7.168 16 16v64c0 8.832-7.168 16-16 16zM768 912h128v-32h-128v32zM736 848h192v-32h-192v32zM768 784h128v-32h-128v32zM256 240h-128v32h128v-32zM288 304h-192v32h192v-32zM256 368h-128v32h128v-32zM320 432h-256v32h256v-32zM896 464c0-123.52-100.48-224-224-224s-224 100.48-224 224v224c0 52.944-43.056 96-96 96s-96-43.056-96-96v-192h-128v192c0 123.52 100.48 224 224 224s224-100.48 224-224v-224c0-52.944 43.056-96 96-96s96 43.056 96 96v192h128v-192zM960 688h-256v32h256v-32zM205.312 168.88c-5.936 8.912-20.688 8.912-26.624 0l-47.872-71.808c-12.304-18.464-18.816-39.952-18.816-62.32 0-42.336 31.712-78.512 72.192-82.384 2.544-0.24 5.088-0.368 7.632-0.368 19.904 0 39.232 7.376 54 20.8 16.624 15.136 26.176 36.72 26.176 59.2v2.928c0 22.192-6.512 43.664-18.816 62.128l-47.872 71.824zM240 32c0-13.488-5.728-26.432-15.712-35.52-10.112-9.216-23.232-13.616-37.040-12.256-24.256 2.32-43.248 24.512-43.248 50.72 0 15.84 4.656 31.184 13.44 44.368l34.56 51.84 34.56-51.84c8.784-13.184 13.44-28.528 13.44-44.384v-2.928z" />
<glyph unicode="&#xe908;" glyph-name="plus" d="M1024 481.758h-478.242v478.242h-67.516v-478.242h-478.242v-67.516h478.242v-478.242h67.516v478.242h478.242z" />
<glyph unicode="&#xe909;" glyph-name="search" d="M1015.031-11.778l-248.848 248.848c66.753 76.743 107.168 176.873 107.168 286.311 0 240.901-195.945 436.619-436.619 436.619-240.901 0-436.619-195.945-436.619-436.619s195.945-436.619 436.619-436.619c109.439 0 209.568 40.415 286.311 107.168l248.848-248.848c5.903-5.903 13.85-9.082 21.57-9.082s15.667 2.952 21.57 9.082c11.807 11.807 11.807 31.333 0 43.14zM61.19 523.381c0 207.071 168.472 375.315 375.315 375.315 207.071 0 375.315-168.472 375.315-375.315s-168.245-375.542-375.315-375.542c-206.843 0-375.315 168.472-375.315 375.542z" />
<glyph unicode="&#xe90a;" glyph-name="whatsapp" d="M757.707 371.596c-1.995 0.958-76.647 37.718-89.913 42.493-5.416 1.945-11.217 3.843-17.388 3.843-10.080 0-18.548-5.024-25.145-14.891-7.457-11.084-30.032-37.472-37.007-45.355-0.911-1.041-2.154-2.284-2.899-2.284-0.668 0-12.222 4.758-15.719 6.277-80.081 34.786-140.866 118.438-149.201 132.545-1.19 2.028-1.24 2.949-1.25 2.949 0.293 1.074 2.986 3.774 4.375 5.167 4.066 4.023 8.471 9.326 12.734 14.456 2.018 2.43 4.039 4.864 6.024 7.158 6.184 7.195 8.937 12.78 12.128 19.25l1.672 3.361c7.793 15.483 1.137 28.549-1.014 32.768-1.765 3.531-33.287 79.606-36.638 87.599-8.059 19.286-18.708 28.266-33.506 28.266-1.373 0 0 0-5.758-0.243-7.012-0.296-45.196-5.323-62.078-15.965-17.903-11.287-48.191-47.267-48.191-110.542 0-56.948 36.139-110.718 51.655-131.168 0.386-0.515 1.094-1.563 2.121-3.065 59.422-86.781 133.499-151.093 208.593-181.092 72.295-28.878 106.529-32.216 125.992-32.216 0.003 0 0.003 0 0.003 0 8.179 0 14.725 0.642 20.5 1.21l3.664 0.349c24.975 2.214 79.859 30.654 92.343 65.346 9.834 27.326 12.428 57.181 5.885 68.016-4.482 7.367-12.205 11.074-21.983 15.769zM521.090 960c-277.331 0-502.957-223.93-502.957-499.177 0-89.025 23.825-176.168 68.957-252.436l-86.385-254.82c-1.609-4.751-0.412-10.004 3.102-13.581 2.537-2.59 5.978-3.986 9.492-3.986 1.346 0 2.703 0.203 4.026 0.625l265.708 84.433c72.711-38.849 154.89-59.355 238.060-59.355 277.305-0.003 502.907 223.904 502.907 499.12 0 275.247-225.602 499.177-502.91 499.177zM521.090 65.682c-78.26 0-154.059 22.598-219.216 65.353-2.191 1.44-4.734 2.178-7.294 2.178-1.353 0-2.71-0.206-4.030-0.625l-133.103-42.31 42.968 126.767c1.39 4.103 0.695 8.628-1.865 12.125-49.617 67.797-75.846 147.898-75.846 231.653 0 217.909 178.715 395.194 398.383 395.194 219.641 0 398.336-177.285 398.336-395.194 0.003-217.883-178.688-395.141-398.333-395.141z" />
<glyph unicode="&#xe90b;" glyph-name="zoom-plus" d="M560.333 573.337h-115.999v115.999c0 10.672-8.661 19.333-19.333 19.333s-19.333-8.661-19.333-19.333v-115.999h-115.999c-10.672 0-19.333-8.661-19.333-19.333s8.661-19.333 19.333-19.333h115.999v-115.999c0-10.672 8.661-19.333 19.333-19.333s19.333 8.661 19.333 19.333v115.999h115.999c10.672 0 19.333 8.661 19.333 19.333s-8.661 19.333-19.333 19.333zM999.602-31.269l-287.271 298.755c73.273 73.485 118.667 174.791 118.667 286.517 0 223.878-182.118 405.996-405.996 405.996s-405.996-182.118-405.996-405.996 182.118-405.996 405.996-405.996c98.27 0 188.46 35.128 258.755 93.418l287.967-299.49c3.789-3.963 8.855-5.935 13.939-5.935 4.833 0 9.647 1.798 13.398 5.394 7.695 7.405 7.927 19.642 0.541 27.337zM57.671 554.004c0 202.553 164.776 367.33 367.33 367.33s367.33-164.776 367.33-367.33-164.776-367.33-367.33-367.33-367.33 164.776-367.33 367.33z" />
<glyph unicode="&#xe90c;" glyph-name="facebook" d="M967.432 959.983h-910.915c-31.192 0-56.517-25.274-56.517-56.517v-910.915c0-31.243 25.325-56.551 56.517-56.551h490.41v396.546h-133.435v154.562h133.435v113.978c0 132.238 80.746 204.284 198.737 204.284 56.568 0 105.076-4.232 119.222-6.070v-138.224l-81.842-0.034c-64.155 0-76.531-30.501-76.531-75.232v-98.652h153.061l-20.014-154.545h-133.065v-396.563h260.919c31.226 0 56.568 25.342 56.568 56.5v910.949c-0.017 31.209-25.325 56.483-56.551 56.483z" />
<glyph unicode="&#xe90d;" glyph-name="window-glass" d="M0 960v-1024h1024v1024h-1024zM990.967 464.516h-462.451v462.451h462.451v-462.451zM495.484 926.967v-462.451h-462.451v462.451h462.451zM33.033 431.484h462.451v-462.451h-462.451v462.451zM528.516-30.967v462.451h462.451v-462.451h-462.451z" />
<glyph unicode="&#xe90e;" glyph-name="air-conditioner" d="M972.799 806.4h-921.599c-29.014 0-51.199-22.186-51.199-51.199v-341.333c0-29.014 22.186-51.199 51.199-51.199h921.599c29.014 0 51.199 22.186 51.199 51.199v341.333c0.002 29.014-22.186 51.199-51.199 51.199zM989.866 413.867c0-10.24-6.826-17.066-17.066-17.066h-921.601c-10.24 0-17.066 6.826-17.066 17.066v341.333c0 10.24 8.534 17.066 17.066 17.066h921.599c10.24 0 17.066-6.826 17.066-17.066v-341.333zM443.732 652.8h136.534c10.24 0 17.066 6.826 17.066 17.066s-6.826 17.066-17.066 17.066h-136.534c-10.24 0-17.066-6.826-17.066-17.066s6.826-17.066 17.066-17.066zM938.665 465.067h-853.332c-10.24 0-17.066-6.826-17.066-17.066s6.826-17.066 17.066-17.066h853.332c10.24 0 17.066 6.826 17.066 17.066s-6.826 17.066-17.066 17.066zM938.665 533.334h-853.332c-10.24 0-17.066-6.826-17.066-17.066s6.826-17.066 17.066-17.066h853.332c10.24 0 17.066 6.826 17.066 17.066s-6.826 17.066-17.066 17.066zM520.533 241.494c-17.066 8.534-25.6 18.774-25.6 27.308s10.24 18.774 23.894 29.014c8.534 3.414 10.24 13.654 6.826 22.186-3.414 8.534-13.654 11.946-22.186 6.826-27.308-15.36-42.667-35.84-42.667-58.027s15.36-42.667 42.667-59.733c17.066-8.534 25.6-18.774 25.6-27.308s-10.24-18.774-25.6-27.306c-8.534-3.414-11.946-13.654-6.826-22.186 3.414-5.12 8.534-8.534 15.36-8.534 3.414 0 5.12 0 8.534 1.706 27.308 15.36 42.667 35.84 42.667 58.027s-15.362 44.373-42.669 58.027zM332.799 207.36c-17.066 8.534-25.6 18.774-25.6 27.308s10.24 18.774 23.894 29.014c8.534 3.414 11.946 13.654 6.826 22.186-3.414 8.534-13.654 11.946-22.186 6.826-27.308-15.36-42.667-35.84-42.667-58.027s15.36-42.667 42.667-59.733c17.066-8.534 25.6-18.774 25.6-27.308s-10.24-18.774-25.6-27.308c-8.534-3.414-11.946-13.654-6.826-22.186 3.414-5.12 8.534-8.534 15.36-8.534 3.414 0 5.12 0 8.534 1.706 27.308 15.36 42.667 35.84 42.667 58.027s-15.362 44.375-42.669 58.029zM708.266 207.36c-17.066 8.534-25.6 18.774-25.6 27.308s10.24 18.774 23.894 29.014c8.534 3.414 10.24 13.654 6.826 22.186-3.414 8.534-13.654 11.946-22.186 6.826-27.308-15.36-42.667-35.84-42.667-58.027s15.36-42.667 42.667-59.733c17.066-8.534 25.6-18.774 25.6-27.308s-10.24-18.774-25.6-27.308c-8.534-3.414-11.946-13.654-6.826-22.186 3.414-5.12 8.534-8.534 15.36-8.534 3.414 0 5.12 0 8.534 1.706 27.308 15.36 42.667 35.84 42.667 58.027s-15.364 44.375-42.669 58.029z" />
<glyph unicode="&#xe90f;" glyph-name="bathtub" d="M972.8 507.733h-17.067v238.933c0 28.277-22.923 51.2-51.2 51.2s-51.2-22.923-51.2-51.2v-17.067h-85.333c-28.277 0-51.2-22.923-51.2-51.2v-102.4h102.4v51.2h34.133v-119.467h-153.6v51.2h-238.933v-51.2h-358.4v375.467c0 9.425 7.642 17.067 17.067 17.067h85.333c9.425 0 17.067-7.642 17.067-17.067v-34.133h-34.133c-28.277 0-51.2-22.923-51.2-51.2s22.923-51.2 51.2-51.2h102.4c28.277 0 51.2 22.923 51.2 51.2s-22.923 51.2-51.2 51.2h-34.133v34.133c0 28.277-22.923 51.2-51.2 51.2h-85.333c-28.277 0-51.2-22.923-51.2-51.2v-375.467h-17.067c-28.277 0-51.2-22.923-51.2-51.2v-34.133c0-28.277 22.923-51.2 51.2-51.2h17.067v-187.733c0.105-65.020 41.109-122.938 102.4-144.64v-43.093c0-18.852 15.281-34.133 34.133-34.133h34.133c18.852 0 34.133 15.281 34.133 34.133v34.133h494.933v-34.133c0-18.852 15.281-34.133 34.133-34.133h34.133c18.852 0 34.133 15.281 34.133 34.133v50.347c52.203 25.901 85.254 79.11 85.333 137.387v187.733h17.067c28.277 0 51.2 22.923 51.2 51.2v34.133c0 28.277-22.923 51.2-51.2 51.2zM290.133 814.933c9.425 0 17.067-7.642 17.067-17.067s-7.642-17.067-17.067-17.067h-102.4c-9.425 0-17.067 7.642-17.067 17.067s7.642 17.067 17.067 17.067h102.4zM887.467 746.667c0 9.425 7.642 17.067 17.067 17.067s17.067-7.642 17.067-17.067v-17.067h-34.133v17.067zM785.067 610.133h-34.133v17.067h34.133v-17.067zM819.2 661.333h-68.267v17.067c0 9.425 7.642 17.067 17.067 17.067h153.6v-34.133h-102.4zM921.6 627.2v-119.467h-34.133v119.467h34.133zM494.933 524.8h170.667v-256h-170.667v256zM51.2 405.333c-9.425 0-17.067 7.642-17.067 17.067v34.133c0 9.425 7.642 17.067 17.067 17.067h409.6v-68.267h-409.6zM238.933-4.267h-34.133v34.133h34.133v-34.133zM836.267-4.267h-34.133v34.133h34.133v-34.133zM921.6 183.467c-0.085-65.943-53.523-119.381-119.467-119.467h-580.267c-65.943 0.085-119.381 53.523-119.467 119.467v187.733h358.4v-170.667h34.133v34.133h34.133v-34.133h34.133v34.133h34.133v-34.133h34.133v34.133h34.133v-34.133h34.133v170.667h221.867v-187.733zM989.867 422.4c0-9.425-7.642-17.067-17.067-17.067h-273.067v68.267h273.067c9.425 0 17.067-7.642 17.067-17.067v-34.133zM153.6 712.533h34.133v-34.133h-34.133v34.133zM221.867 712.533h34.133v-34.133h-34.133v34.133zM290.133 712.533h34.133v-34.133h-34.133v34.133zM153.6 576h34.133v-34.133h-34.133v34.133zM221.867 576h34.133v-34.133h-34.133v34.133zM290.133 576h34.133v-34.133h-34.133v34.133zM187.733 644.267h34.133v-34.133h-34.133v34.133zM256 644.267h34.133v-34.133h-34.133v34.133z" />
<glyph unicode="&#xe910;" glyph-name="circular-saw" d="M924.406 392.837c0.232-3.618 0.496-7.218 0.496-10.901s-0.264-7.284-0.496-10.901l-0.312-4.641 32.967-1.932 0.298 4.329c0.281 4.342 0.579 8.706 0.579 13.145 0 4.443-0.298 8.803-0.579 13.162l-0.298 4.329-32.967-1.932 0.312-4.658zM920.528 428.579l32.519 5.813c-25.302 141.874-148.266 244.833-292.401 244.833-60.433 0-118.719-18.15-168.48-52.473l18.747-27.185c44.229 30.504 96.025 46.625 149.733 46.625 128.101 0.003 237.4-91.513 259.882-217.613zM1024 117.68c0 34.354-26.443 62.348-60.003 65.452 38.763 58.928 60.003 127.751 60.003 198.804 0 200.358-162.996 363.354-363.354 363.354-51.446 0-100.732-11.099-145.654-30.869l-281.75 222.441c-18.896 14.914-42.581 23.138-66.676 23.138h-9.378c-59.34 0-107.638-48.276-107.638-107.634 0-41.291 24.081-79.426 61.356-97.18l87.289-41.555v-34.403c0-27.317 22.232-49.549 49.549-49.549h126.745l14.501-6.902c-41.704-46.906-71.729-104.794-84.611-169.604l-3.222-16.187 65.57-13.114c-1.998-13.988-3.368-28.028-3.368-41.933 0-76.172 29.051-145.54 76.339-198.193h-224.983v82.579h-115.618v-82.582h-66.062v33.033h-33.033v-99.095h33.033v33.033h66.066v-66.066h-33.033c-18.216 0-33.033-14.813-33.033-33.033v-82.582h-33.033v-33.033h1023.997v33.033h-33.033v82.582c0 2.955-0.513 5.782-1.256 8.504 20.332 11.283 34.292 32.703 34.292 57.561zM247.746 662.712c-9.118 0-16.516 7.415-16.516 16.516v18.681l73.894-35.197h-57.377zM125.097 785.013c-25.815 12.302-42.515 38.745-42.515 67.352 0 41.142 33.463 74.605 74.605 74.605h9.382c16.697 0 33.116-5.699 46.213-16.038l269.458-212.726c-24.858-14.071-47.846-31.132-68.722-50.524l-288.42 137.33zM340.38 462.833c36.619 145.491 168.733 249.425 320.266 249.425 182.138 0 330.321-148.183 330.321-330.321 0-75.576-26.061-148.613-73.727-207.426l-184.105 164.748-11.016-12.306c-15.708-17.54-38.117-27.598-61.474-27.598-45.536 0-82.582 37.046-82.582 82.582 0 5.383 0.545 10.835 1.62 16.187l3.236 16.201-242.54 48.509zM396.387 381.94c0 11.74 1.106 23.616 2.709 35.475l146.119-29.218c-0.114-2.098-0.18-4.179-0.18-6.26 0-63.752 51.877-115.611 115.611-115.611 27.202 0 53.479 9.711 74.189 27.088l110.839-99.178c-49.352-48.672-115.761-76.551-185.031-76.551-145.706 0-264.256 118.553-264.256 264.256zM214.713 150.713h259.483c51.051-41.239 115.878-66.066 186.45-66.066 78.649 0 153.979 31.909 209.656 87.552l28.555-25.552c-4.329-8.785-6.985-18.532-6.985-28.968 0-12.091 3.503-23.273 9.184-33.033h-686.343v66.066zM132.131 233.292h49.549v-148.644h-49.549v148.644zM957.931-30.964h-891.865v82.582h891.865v-82.582zM957.931 84.648c-18.216 0-33.033 14.813-33.033 33.033 0 18.216 14.813 33.033 33.033 33.033 18.216 0 33.033-14.813 33.033-33.033s-14.813-33.033-33.033-33.033z" />
<glyph unicode="&#xe911;" glyph-name="heating" d="M1024 678v180h-128.602c-12.773 40.531-50.703 70-95.398 70-27.234 0-51.945-10.953-70-28.68-18.055 17.727-42.766 28.68-70 28.68s-51.945-10.953-70-28.68c-18.055 17.727-42.766 28.68-70 28.68s-51.945-10.953-70-28.68c-18.055 17.727-42.766 28.68-70 28.68s-51.945-10.953-70-28.68c-18.055 17.727-42.766 28.68-70 28.68s-51.945-10.953-70-28.68c-18.055 17.727-42.766 28.68-70 28.68-55.141 0-100-44.859-100-100v-760c0-55.141 44.859-100 100-100 26.977 0 51.406 10.203 69.781 28.883 18.070-17.844 42.875-28.883 70.219-28.883 27.234 0 51.945 10.953 70 28.68 18.055-17.727 42.766-28.68 70-28.68s51.945 10.953 70 28.68c18.055-17.727 42.766-28.68 70-28.68s51.945 10.953 70 28.68c18.055-17.727 42.766-28.68 70-28.68s51.945 10.953 70 28.68c18.055-17.727 42.766-28.68 70-28.68 44.695 0 82.625 29.469 95.398 70h128.602v180h-124v460zM964 738h-64v60h64zM100 28c-22.055 0-40 17.945-40 40v760c0 22.055 17.945 40 40 40s40-17.945 40-40v-760c0-10.25-9.852-40-40-40zM240 28c-22.055 0-40 17.945-40 40v760c0 22.055 17.945 40 40 40s40-17.945 40-40v-760c0-22.055-17.945-40-40-40zM380 28c-22.055 0-40 17.945-40 40v760c0 22.055 17.945 40 40 40s40-17.945 40-40v-760c0-22.055-17.945-40-40-40zM520 28c-22.055 0-40 17.945-40 40v760c0 22.055 17.945 40 40 40s40-17.945 40-40v-760c0-22.055-17.945-40-40-40zM660 28c-22.055 0-40 17.945-40 40v760c0 22.055 17.945 40 40 40s40-17.945 40-40v-760c0-22.055-17.945-40-40-40zM840 68c0-22.055-17.945-40-40-40s-40 17.945-40 40v760c0 22.055 17.945 40 40 40s40-17.945 40-40zM964 158v-60h-64v60z" />
<glyph unicode="&#xe912;" glyph-name="parquet" d="M940.23 215.561l-66.87 66.87 66.886 66.886c7.966 7.966 7.966 20.882 0 28.85l-68.39 68.39 66.748 66.75c7.966 7.966 7.966 20.882 0 28.848l-411.869 411.871c-7.966 7.966-20.882 7.966-28.85 0l-412.931-412.935c-3.824-3.824-5.974-9.014-5.974-14.424s2.15-10.6 5.974-14.424l66.664-66.662-66.87-66.87c-7.966-7.966-7.966-20.882 0-28.85l66.634-66.634-67.63-67.626c-7.966-7.966-7.966-20.882 0-28.85l67.866-67.866-66.87-66.87c-7.966-7.966-7.966-20.882 0-28.85l81.192-81.192c3.984-3.982 9.204-5.974 14.424-5.974s10.442 1.992 14.424 5.974l317.579 317.579 315.703-315.703c3.824-3.824 9.014-5.974 14.424-5.974s10.598 2.15 14.424 5.974l81.052 81.052c7.966 7.966 7.966 20.882 0 28.848l-65.35 65.35 67.612 67.612c7.964 7.966 7.964 20.884-0.002 28.85zM896.976 363.743l-52.462-52.462-303.691 303.691 52.462 52.462 303.691-303.691zM895.334 527.731l-52.324-52.326-301.935 301.935 52.324 52.324 301.935-301.933zM128.228 526.667l384.083 384.087 52.24-52.24-384.083-384.085-52.24 52.238zM128.022 364.287l384.207 384.207 52.21-52.21-384.209-384.207-52.208 52.21zM127.026 201.175l384.949 384.949 53.442-53.442-384.949-384.949-53.442 53.442zM180.364-14.752l-52.342 52.342 384.207 384.207 52.342-52.342-384.207-384.207zM894.698 39.328l-52.204-52.204-301.277 301.279 52.204 52.204 301.277-301.279zM843.77 147.952l-302.695 302.695 53.188 53.188 302.695-302.695-53.188-53.188zM858.916 541.979l-96.892 96.892c-7.966 7.966-20.882 7.966-28.85 0-7.966-7.966-7.966-20.882 0-28.85l96.894-96.892c3.984-3.984 9.204-5.974 14.424-5.974s10.442 1.99 14.424 5.974c7.966 7.966 7.966 20.882 0 28.85zM718.169 682.727l-9.562 9.562c-7.966 7.966-20.882 7.966-28.85 0-7.966-7.966-7.966-20.882 0-28.85l9.564-9.562c3.984-3.984 9.204-5.974 14.424-5.974s10.442 1.99 14.424 5.974c7.966 7.968 7.966 20.884 0 28.85z" />
<glyph unicode="&#xe913;" glyph-name="radiator" d="M994 231.383h-5.273v409.148h5.273c16.57 0 30 13.43 30 30 0 16.563-13.43 30-30 30h-5.273v135.031c0 50.969-41.461 92.438-92.438 92.438-50.969 0-92.438-41.469-92.438-92.438v-135.031h-52.438v135.031c0 50.969-41.469 92.438-92.438 92.438s-92.438-41.469-92.438-92.438v-135.031h-52.438v135.031c0 50.969-41.469 92.438-92.438 92.438s-92.438-41.469-92.438-92.438v-135.031h-52.445v135.031c0 50.969-41.461 92.438-92.438 92.438-50.969 0-92.438-41.469-92.438-92.438v-135.031h-31.906v15.953c0 16.57-13.43 30-30 30s-30-13.43-30-30v-91.914c0-16.57 13.43-30 30-30s30 13.43 30 30v15.961h31.914v-578.703c0-50.969 41.461-92.43 92.438-92.43 50.969 0 92.438 41.461 92.438 92.43v109.555h52.438v-109.555c0-50.969 41.469-92.43 92.438-92.43s92.438 41.461 92.438 92.43v109.555h52.445v-109.555c0-50.969 41.461-92.43 92.438-92.43 50.969 0 92.438 41.461 92.438 92.43v109.555h52.438v-109.555c0-50.969 41.469-92.43 92.438-92.43 50.977 0 92.438 41.461 92.438 92.43v109.555h5.266c16.57 0 30 13.43 30 30s-13.43 30-30 30zM216.789 61.828c0-17.883-14.555-32.43-32.438-32.43-17.891 0-32.438 14.547-32.438 32.43v773.734c0 17.891 14.547 32.438 32.438 32.438 17.883 0 32.438-14.547 32.438-32.438zM276.789 231.383v409.148h52.438v-409.148zM454.102 61.828c0-17.883-14.555-32.43-32.438-32.43s-32.438 14.547-32.438 32.43v773.734c0 17.891 14.547 32.438 32.438 32.438 17.883 0 32.438-14.547 32.438-32.438zM514.102 231.383v409.148h52.438v-409.148zM691.414 61.828c0-17.883-14.547-32.43-32.438-32.43-17.883 0-32.438 14.547-32.438 32.43v773.734c0 17.891 14.555 32.438 32.438 32.438s32.438-14.547 32.438-32.438zM751.414 231.383v409.148h52.445v-409.148zM928.727 61.828c0-17.883-14.547-32.43-32.438-32.43-17.883 0-32.438 14.547-32.438 32.43v773.734c0 17.891 14.555 32.438 32.438 32.438 17.891 0 32.438-14.547 32.438-32.438z" />
<glyph unicode="&#xe914;" glyph-name="roof-tile" d="M982.684 960h-941.366c-11.264 0-20.398-9.134-20.398-20.398v-826.308c0-97.76 79.534-177.292 177.292-177.292 67.994 0 127.162 38.484 156.894 94.808 29.732-56.326 88.9-94.81 156.894-94.81s127.162 38.484 156.894 94.808c29.734-56.324 88.9-94.808 156.894-94.808 97.76 0 177.292 79.534 177.292 177.292v826.31c0.002 11.264-9.132 20.398-20.396 20.398zM334.708 113.292c0-75.264-61.232-136.496-136.496-136.496s-136.496 61.232-136.496 136.496v161.258c32.546-39.238 81.65-64.276 136.496-64.276s103.95 25.034 136.496 64.276v-161.258zM334.708 388.73v-1.16c0-75.264-61.232-136.496-136.496-136.496s-136.496 61.232-136.496 136.496v163.578c32.546-39.24 81.65-64.276 136.496-64.276s103.95 25.034 136.496 64.276v-162.418zM334.708 664.166c0-75.264-61.232-136.496-136.496-136.496s-136.496 61.232-136.496 136.496v255.038h272.992v-255.038zM648.496 113.292c0-75.264-61.232-136.496-136.496-136.496s-136.496 61.232-136.496 136.496v161.258c32.546-39.238 81.65-64.276 136.496-64.276s103.95 25.034 136.496 64.276v-161.258zM648.496 388.728v-1.16c0-75.264-61.232-136.496-136.496-136.496s-136.496 61.232-136.496 136.496v163.578c32.546-39.238 81.65-64.276 136.496-64.276s103.95 25.034 136.496 64.276v-162.418zM648.496 664.166c0-75.264-61.232-136.496-136.496-136.496s-136.496 61.232-136.496 136.496v255.038h272.992v-255.038zM962.284 113.292c0-75.264-61.232-136.496-136.496-136.496s-136.496 61.232-136.496 136.496v161.258c32.546-39.238 81.65-64.276 136.496-64.276s103.95 25.034 136.496 64.276v-161.258zM962.284 388.728v-1.16c0-75.264-61.232-136.496-136.496-136.496s-136.496 61.232-136.496 136.496v163.578c32.546-39.238 81.65-64.276 136.496-64.276s103.95 25.034 136.496 64.276v-162.418zM962.284 664.166c0-75.264-61.232-136.496-136.496-136.496s-136.496 61.232-136.496 136.496v255.038h272.992v-255.038zM924.048 896.662c-11.264 0-20.398-9.134-20.398-20.398v-93.832c0-11.264 9.134-20.398 20.398-20.398s20.398 9.134 20.398 20.398v93.832c0 11.264-9.134 20.398-20.398 20.398zM924.048 741.636c-11.264 0-20.398-9.134-20.398-20.398v-20.398c0-11.264 9.134-20.398 20.398-20.398s20.398 9.134 20.398 20.398v20.398c0 11.262-9.134 20.398-20.398 20.398z" />
<glyph unicode="&#xe915;" glyph-name="ruler" d="M888.435 205.925h-500.686v736.678c0.109 4.527-1.59 8.912-4.728 12.176s-7.439 5.146-11.967 5.222h-235.49c-9.632-0.075-17.473-7.766-17.741-17.397v-989.205c0.268-9.632 8.109-17.322 17.741-17.397h752.87c9.632 0.075 17.473 7.766 17.741 17.397v235.481c-0.293 9.565-8.176 17.138-17.741 17.046zM152.1 70.962h38.561c9.464 0 17.138 7.674 17.138 17.138s-7.674 17.138-17.138 17.138h-38.561v85.69h98.686c9.464 0 17.138 7.674 17.138 17.138s-7.674 17.138-17.138 17.138h-98.686v85.69h38.561c9.464 0 17.138 7.674 17.138 17.138s-7.674 17.138-17.138 17.138h-38.561v85.69h98.686c9.464 0 17.138 7.674 17.138 17.138s-7.674 17.138-17.138 17.138h-98.686v85.69h38.561c9.464 0 17.138 7.674 17.138 17.138s-7.674 17.138-17.138 17.138h-38.561v85.69h98.686c9.464 0 17.138 7.674 17.138 17.138s-7.674 17.138-17.138 17.138h-98.686v85.69h38.561c9.464 0 17.138 7.674 17.138 17.138s-7.674 17.138-17.138 17.138h-38.561v100.686h201.372v-955.448h-201.372zM871.9-29.724h-484.151v201.372h484.151z" />
<glyph unicode="&#xe916;" glyph-name="sierra" d="M1019.383 131.126l-50.464 50.468c-2.958 2.956-6.968 4.62-11.153 4.62h-85.158v170.32h17.873c8.709 0 15.77 7.061 15.77 15.77v370.070c0 73.623-59.897 133.52-133.52 133.52h-521.462c-0.774 0-1.529-0.076-2.273-0.183-11.375 20.465-33.081 33.826-57.842 33.826h-124.92c-36.521 0-66.234-29.713-66.234-66.234v-370.070c0-36.521 29.713-66.234 66.234-66.234h175.466c0.015 0 0.029-0.002 0.044-0.002 0.008 0 0.019 0.002 0.027 0.002h51.608l15.438-100.346c7.549-49.072 49.064-84.689 98.716-84.689h29.822v-35.747h-118.801c-4.182 0-8.194-1.663-11.153-4.62l-50.464-50.468c-4.51-4.51-5.858-11.293-3.417-17.185 2.441-5.894 8.192-9.735 14.569-9.735h522.513v-68.33c0-5.273 2.635-10.198 7.023-13.121l50.464-33.643c2.639-1.76 5.69-2.649 8.749-2.649 2.551 0 5.109 0.618 7.441 1.867 5.126 2.744 8.329 8.089 8.329 13.903v101.971h135.622c6.377 0 12.128 3.842 14.569 9.735 2.439 5.894 1.089 12.675-3.419 17.185zM772.731 844.353c56.232 0 101.979-45.748 101.979-101.979v-152.444h-135.017l15.087 150.875c0.444 4.432-1.009 8.848-3.999 12.149-2.99 3.303-7.237 5.189-11.693 5.189h-467.821l-13.264 86.209h514.727zM721.661 726.604l-3.268-32.686c-14.908 5.143-32.633 6.377-52.912 3.633-4.109-0.557-7.992-1.236-11.552-1.962v31.014h67.731zM255.294 438.538l-54.878 356.699c-1.323 8.608-9.355 14.508-17.984 13.188-8.608-1.325-14.513-9.376-13.188-17.986l54.14-351.901h-157.149c-19.13 0-34.694 15.564-34.694 34.694v370.070c0 19.13 15.564 34.694 34.694 34.694h89.54l5.707-37.089c1.199-7.797 7.917-13.373 15.566-13.373 0.797 0 1.606 0.061 2.418 0.185 8.608 1.325 14.513 9.376 13.188 17.984l-4.969 32.293h3.469c17.246 0 31.668-12.372 34.29-29.418l63.082-410.039h-33.233zM276.12 726.604h346.27v-51.515c0-5.137 2.502-9.954 6.708-12.906s9.586-3.671 14.418-1.926c12.187 4.401 48.742 13.152 71.238 0.965 0.116-0.063 0.235-0.103 0.351-0.164l-7.111-71.127h-410.847l-21.027 136.674zM407.533 253.503c-33.971 0-62.378 24.37-67.544 57.947l-37.989 246.94h420.267c0.006 0 0.015 0 0.021 0s0.015 0 0.021 0h152.401v-170.316h-40.367c-22.986 0-43.982-11.638-56.164-31.13l-54.461-87.135c-6.379-10.211-17.379-16.306-29.418-16.306h-286.766zM841.068 356.534v-170.318h-18.924v168.113c3.833 1.432 7.948 2.206 12.2 2.206h6.724zM790.604 317.317v-131.104h-86.209v36.538c18.935 2.876 35.699 13.747 46.069 30.339l40.14 64.226zM672.854 221.963v-35.747h-203.959v35.747h203.959zM841.068 31.701l-18.924 12.616v59.888h18.924v-72.504zM856.92 135.745c-0.027 0-0.055 0.004-0.082 0.004s-0.055-0.002-0.082-0.004h-550.597l18.926 18.928h481.196c0.032 0 0.061-0.004 0.090-0.004s0.061 0.004 0.090 0.004h144.769l18.926-18.928h-113.237zM402.661 489.002c-8.709 0-15.77-7.061-15.77-15.77v-117.749c0-8.709 7.061-15.77 15.77-15.77s15.77 7.061 15.77 15.77v117.749c0 8.709-7.061 15.77-15.77 15.77zM453.125 489.002c-8.709 0-15.77-7.061-15.77-15.77v-117.749c0-8.709 7.061-15.77 15.77-15.77s15.77 7.061 15.77 15.77v117.749c0 8.709-7.061 15.77-15.77 15.77zM503.589 489.002c-8.709 0-15.77-7.061-15.77-15.77v-117.749c0-8.709 7.061-15.77 15.77-15.77s15.77 7.061 15.77 15.77v117.749c0 8.709-7.061 15.77-15.77 15.77z" />
<glyph unicode="&#xe917;" glyph-name="study-plain" d="M149.329 789.641c-35.346 0-64-28.654-64-64v-170.667h42.666v170.667c0 11.782 9.552 21.334 21.334 21.334h512.002v42.666h-512.002zM149.329 149.639c-11.782 0-21.334 9.552-21.334 21.334v213.335h-42.666v-213.335c0-35.346 28.654-64 64-64h213.335v42.666h-213.335zM676.415 94.621l-518.104 518.104c-8.33 8.328-21.834 8.328-30.166 0l-121.898-121.9c-8.328-8.33-8.328-21.834 0-30.166l518.104-518.102c4-4.002 9.426-6.25 15.082-6.25 5.658 0.002 11.082 2.25 15.082 6.25l121.898 121.898c8.33 8.332 8.33 21.836 0.002 30.166zM539.432-12.196l-487.938 487.938 91.734 91.734 487.938-487.94-91.734-91.732zM938.666 149.639h-320.001v-42.666h234.667v-106.666c0-11.782 9.552-21.334 21.334-21.334h64c47.128 0 85.334 38.204 85.334 85.334 0 47.128-38.206 85.332-85.334 85.332zM938.666 21.638h-42.666v85.334h42.666c23.564 0 42.666-19.102 42.666-42.666 0-23.566-19.102-42.668-42.666-42.668zM938.666 789.641h-106.666v-42.666h106.666c23.564 0 42.666-19.102 42.666-42.666v-640.003h42.666v640.003c0.002 47.128-38.204 85.332-85.332 85.332zM326.25 292.722l64.006 64.006 30.169-30.169-64.006-64.006-30.169 30.169zM240.918 378.056l64.006 64.006 30.169-30.169-64.006-64.006-30.169 30.169zM411.537 207.388l64.006 64.006 30.169-30.169-64.006-64.006-30.169 30.169zM496.909 122.011l64.006 64.006 30.169-30.169-64.006-64.006-30.169 30.169zM155.526 463.39l64.006 64.006 30.169-30.169-64.006-64.006-30.169 30.169zM920.192 912.352l-29.484 29.482c-24.946 23.814-64.206 23.814-89.152 0l-324.395-324.395c-8.328-8.33-8.328-21.834 0-30.166l88.47-88.47c3.99-4.016 9.422-6.266 15.082-6.25 5.658 0.002 11.082 2.25 15.082 6.25l324.397 324.397c0.010 0.010 0.020 0.020 0.030 0.030 24.602 24.618 24.588 64.52-0.030 89.122zM890.047 853.386l-309.335-309.333-58.304 58.304 309.335 309.313c8.056 7.698 20.744 7.698 28.8 0l29.504-29.462c0.002-0.004 0.006-0.006 0.010-0.010 7.952-7.958 7.948-20.858-0.010-28.812zM573.864 534.11l-92.074-30.742 30.742 92.224-40.534 13.504-44.246-132.715c-0.724-2.176-1.094-4.454-1.094-6.746 0.002-11.782 9.556-21.332 21.338-21.328 2.258-0.008 4.504 0.338 6.656 1.024l132.715 44.246-13.502 40.532zM742.559 852.701l30.169 30.169 88.473-88.473-30.169-30.169-88.473 88.473zM447.998 490.974h320.001v-42.666h-320.001v42.666zM810.665 490.974h42.666v-42.666h-42.666v42.666zM895.999 490.974h42.666v-42.666h-42.666v42.666z" />
<glyph unicode="&#xe918;" glyph-name="tile" d="M850.163 776.954c-40.813 40.781-208.111 76.126-215.205 77.61-2.642 0.533-5.391-0.25-7.298-2.171-1.907-1.909-2.734-4.658-2.171-7.298 1.484-7.094 36.797-174.424 77.61-215.237 21.375-21.377 50.141-33.11 79-33.11 8.219 0 16.436 0.939 24.501 2.89 4.296 1.047 6.935 5.377 5.906 9.657s-5.313 6.873-9.655 5.906c-31.032-7.484-64.907 2.437-88.439 25.969-31.53 31.532-61.625 155.549-70.579 195.050 39.501-8.954 163.485-39.064 195.018-70.579 23.516-23.516 33.483-57.407 25.999-88.439-1.031-4.296 1.608-8.624 5.906-9.655 4.344-0.937 8.61 1.624 9.655 5.906 8.766 36.407-2.828 76.080-30.249 103.501zM899.195 614.797l-79.22 79.188c-3.124 3.126-8.185 3.124-11.311 0s-3.126-8.187 0-11.311l79.22-79.188c1.56-1.562 3.609-2.345 5.656-2.345 2.045 0 4.093 0.781 5.656 2.345 3.126 3.122 3.126 8.185 0 11.311zM876.536 592.17l-79.188 79.188c-3.122 3.126-8.185 3.124-11.311 0s-3.126-8.185 0-11.311l79.188-79.188c1.562-1.562 3.609-2.343 5.656-2.343 2.049 0 4.093 0.781 5.656 2.343 3.126 3.124 3.126 8.185 0 11.311zM910.506 626.108c-3.124 3.126-8.185 3.126-11.311 0l-45.281-45.251c-3.126-3.124-3.126-8.185 0-11.311 1.562-1.562 3.609-2.345 5.656-2.345s4.093 0.783 5.656 2.345l45.281 45.251c3.126 3.124 3.124 8.185 0 11.311zM1012.318 524.295l-101.813 101.813c-3.124 3.126-8.185 3.124-11.311 0s-3.126-8.185 0-11.311l101.813-101.815c1.562-1.562 3.611-2.343 5.656-2.343 2.047 0 4.095 0.781 5.656 2.343 3.126 3.124 3.126 8.187 0 11.313zM967.068 479.047l-101.845 101.813c-3.124 3.126-8.187 3.126-11.311 0-3.126-3.124-3.126-8.185 0-11.311l101.845-101.815c1.562-1.562 3.611-2.343 5.656-2.343 2.049 0 4.093 0.779 5.656 2.343 3.124 3.124 3.124 8.187 0 11.313zM1012.316 524.293c-3.122 3.126-8.185 3.126-11.311 0-3.126-3.108-3.126-8.173 0-11.313 9.345-9.359 9.345-24.593 0-33.936-9.094-9.094-24.843-9.094-33.936 0-3.124 3.124-8.187 3.124-11.313 0-3.126-3.108-3.126-8.173 0-11.313 7.546-7.562 17.594-11.734 28.282-11.734 10.686 0 20.736 4.172 28.278 11.732 15.579 15.579 15.579 40.953 0 56.564zM819.974 693.985c-9.345 9.343-24.593 9.343-33.938 0-9.359-9.361-9.359-24.577 0-33.938 1.562-1.562 3.609-2.343 5.656-2.343 2.049 0 4.093 0.781 5.658 2.345 3.126 3.124 3.126 8.185 0 11.311-3.124 3.124-3.124 8.187 0 11.313 3.124 3.124 8.187 3.124 11.313 0 3.124-3.126 8.185-3.126 11.311 0 3.126 3.122 3.126 8.185 0 11.311zM328.034 295.997h-320.003c-4.422 0-8.001-3.579-8.001-8.001v-320.003c0-4.422 3.579-7.999 8.001-7.999h320.003c4.422 0 7.999 3.577 7.999 7.999v320.003c0 4.422-3.577 8.001-7.999 8.001zM320.033-24.006h-304.002v304.002h304.002v-304.002zM61.685 261.653c-3.122 3.126-8.185 3.126-11.311 0l-15.999-15.999c-3.126-3.124-3.126-8.187 0-11.311 1.562-1.564 3.611-2.345 5.656-2.345 2.049 0 4.093 0.779 5.656 2.345l15.999 15.997c3.126 3.124 3.126 8.187 0 11.313zM109.687 261.653c-3.124 3.126-8.187 3.126-11.313 0l-64-64.002c-3.126-3.122-3.126-8.185 0-11.311 1.562-1.562 3.611-2.343 5.656-2.343 2.049 0 4.093 0.779 5.656 2.343l64.002 64c3.126 3.124 3.124 8.187 0 11.313zM968.039 295.997h-320.003c-4.422 0-7.999-3.579-7.999-8.001v-320.003c0-4.422 3.577-7.999 7.999-7.999h320.003c4.422 0 7.999 3.577 7.999 7.999v320.003c0 4.422-3.577 8.001-7.999 8.001zM960.038-24.006h-304.002v304.002h304.002v-304.002zM701.69 261.653c-3.122 3.126-8.185 3.126-11.311 0l-15.999-15.999c-3.124-3.124-3.124-8.187 0-11.311 1.562-1.564 3.611-2.345 5.658-2.345s4.091 0.779 5.656 2.345l15.997 15.997c3.126 3.124 3.126 8.187 0 11.313zM749.692 261.653c-3.124 3.126-8.185 3.126-11.311 0l-64.002-64.002c-3.124-3.122-3.124-8.185 0-11.311 1.562-1.562 3.611-2.343 5.658-2.343s4.091 0.779 5.656 2.343l64 64c3.126 3.124 3.124 8.187 0 11.313zM648.036 616h-320.001c-4.422 0-8.001-3.577-8.001-7.999v-320.005c0-4.422 3.579-8.001 8.001-8.001h320.001c4.422 0 8.001 3.579 8.001 8.003v320.003c0 4.422-3.579 7.999-8.001 7.999zM640.037 295.999h-304.004v304h304.004v-304zM381.688 581.656c-3.124 3.124-8.185 3.124-11.311 0l-15.999-16.001c-3.126-3.122-3.126-8.185 0-11.311 1.562-1.562 3.609-2.343 5.656-2.343s4.093 0.779 5.656 2.343l15.999 15.999c3.126 3.124 3.126 8.187 0 11.313zM429.689 581.656c-3.124 3.124-8.185 3.124-11.311 0l-64-64.002c-3.126-3.124-3.126-8.185 0-11.311 1.562-1.562 3.609-2.343 5.656-2.343s4.093 0.781 5.656 2.343l64 64c3.126 3.124 3.126 8.187 0 11.313zM328.002 936.004h-320.003c-4.422 0-7.999-3.579-7.999-8.001v-320.003c0-4.422 3.577-8.001 7.999-8.001h320.003c4.422 0 7.999 3.581 7.999 8.003v320.001c0 4.422-3.577 8.001-7.999 8.001zM320.001 616h-304.002v304.004h304.002v-304.004zM61.653 901.658c-3.122 3.126-8.185 3.126-11.311 0l-15.999-15.999c-3.126-3.124-3.126-8.185 0-11.311 1.562-1.562 3.611-2.345 5.656-2.345 2.049 0 4.093 0.781 5.656 2.345l15.999 15.999c3.126 3.124 3.126 8.185 0 11.311zM109.655 901.658c-3.124 3.126-8.187 3.126-11.313 0l-64-64c-3.126-3.124-3.126-8.187 0-11.313 1.562-1.56 3.611-2.343 5.656-2.343 2.049 0 4.093 0.783 5.658 2.343l64 64.002c3.126 3.124 3.124 8.185 0 11.311zM648.036 295.997h-320.001c-4.422 0-8.001-3.579-8.001-8.001v-320.003c0-4.422 3.579-7.999 8.001-7.999h320.001c4.422 0 8.001 3.577 8.001 7.999v320.003c0 4.422-3.579 8.001-8.001 8.001zM640.037-24.006h-304.004v304.002h304.004v-304.002zM571.004 119.416c-22.688 9.078-41.986 8.421-57.313-1.985-33.281-22.514-33.657-82.875-33.657-85.437 0-4.422 3.577-8.001 7.999-8.001 4.406 0 8.001 3.579 8.003 7.999 0 0.531 0.393 54.469 26.642 72.203 10.72 7.222 24.986 7.314 42.391 0.377 4.091-1.64 8.75 0.362 10.39 4.454s-0.344 8.75-4.454 10.39zM462.378 117.433c-15.313 10.39-34.624 11.063-57.313 1.985-4.11-1.64-6.094-6.296-4.454-10.39s6.312-6.094 10.39-4.454c17.421 6.935 31.687 6.843 42.391-0.377 26.251-17.736 26.642-71.672 26.642-72.203 0-4.422 3.593-8.001 7.999-8.001 4.422 0 8.001 3.579 8.003 8.003 0 2.561-0.377 62.922-33.657 85.437zM475.031 180.090c-10.045 7.268-22.67 8.455-37.53 3.501-4.186-1.406-6.453-5.938-5.063-10.126 1.406-4.186 5.97-6.467 10.126-5.063 9.813 3.296 17.377 2.86 23.095-1.264 11.72-8.423 14.343-31.126 14.375-39.159 0.016-4.406 3.593-7.983 7.999-7.983v0h0.014c4.406 0.016 7.985 3.593 7.985 7.999 0 1.516-0.234 37.142-21 52.094zM538.565 183.59c-14.86 4.955-27.499 3.783-37.532-3.501-20.764-14.952-20.998-50.578-20.998-52.094 0-4.422 3.577-7.999 7.999-7.999s8.001 3.577 7.999 7.999c0 8.001 2.577 30.641 14.343 39.126 5.75 4.124 13.328 4.576 23.127 1.28 4.202-1.42 8.736 0.875 10.124 5.063 1.394 4.188-0.873 8.72-5.061 10.126zM424.033 71.992c-13.234 0-24-10.764-24-23.998s10.766-24 24-24c13.236 0 24 10.766 24 24s-10.766 23.998-24 23.998zM424.033 39.996c-4.406 0-7.999 3.595-7.999 8.001s3.593 7.999 7.999 7.999 8.001-3.593 8.001-7.999c0-4.406-3.595-8.001-8.001-8.001zM552.035 71.992c-13.234 0-24-10.764-24-23.998s10.766-24 24-24c13.236 0 23.998 10.766 23.998 24s-10.764 23.998-23.998 23.998zM552.035 39.996c-4.406 0-8.001 3.595-8.001 8.001s3.595 7.999 8.001 7.999 7.999-3.593 7.999-7.999c0-4.406-3.593-8.001-7.999-8.001zM488.033 231.997c-4.422 0-7.999-3.577-7.999-8.001v-32.001c0-4.42 3.577-7.999 7.999-7.999s8.001 3.579 8.001 7.999v32.001c0 4.424-3.579 8.001-8.001 8.001zM381.688 261.653c-3.124 3.126-8.185 3.126-11.311 0l-15.999-15.999c-3.126-3.124-3.126-8.187 0-11.311 1.562-1.564 3.609-2.345 5.656-2.345s4.093 0.779 5.656 2.345l15.999 15.997c3.126 3.124 3.124 8.187 0 11.313zM429.689 261.653c-3.124 3.126-8.185 3.126-11.311 0l-64-64.002c-3.126-3.122-3.126-8.185 0-11.311 1.562-1.562 3.609-2.343 5.656-2.343s4.093 0.779 5.656 2.343l64 64c3.126 3.124 3.124 8.187 0 11.313zM328.034 616h-320.003c-4.422 0-8.001-3.577-8.001-7.999v-320.005c0-4.422 3.579-8.001 8.001-8.001h320.003c4.422 0 7.999 3.579 7.999 8.003v320.003c0 4.422-3.577 7.999-7.999 7.999zM320.033 295.999h-304.002v304h304.002v-304zM251.001 439.419c-22.686 9.092-41.984 8.437-57.313-1.985-33.281-22.516-33.657-82.875-33.657-85.439 0-4.422 3.579-7.999 8.001-7.999 4.406 0 7.999 3.577 8.001 7.997 0 0.533 0.393 54.471 26.642 72.205 10.72 7.22 24.986 7.314 42.391 0.377 4.091-1.656 8.75 0.36 10.39 4.452s-0.344 8.75-4.454 10.392zM142.375 437.437c-15.311 10.406-34.624 11.077-57.313 1.985-4.11-1.642-6.092-6.296-4.454-10.392 1.624-4.091 6.28-6.092 10.39-4.452 17.421 6.935 31.689 6.841 42.391-0.377 26.253-17.736 26.642-71.672 26.642-72.205 0-4.422 3.595-7.999 8.001-7.999 4.422 0 7.999 3.577 8.001 8.001 0 2.563-0.375 62.922-33.657 85.439zM155.030 500.093c-10.031 7.266-22.672 8.453-37.532 3.501-4.186-1.406-6.451-5.938-5.061-10.126 1.406-4.186 5.922-6.485 10.126-5.063 9.811 3.282 17.389 2.844 23.093-1.266 11.72-8.421 14.343-31.126 14.375-39.157 0.016-4.406 3.595-7.985 8.001-7.985h0.016c4.406 0.016 7.983 3.595 7.983 8.001 0 1.516-0.232 37.14-21 52.094zM218.561 503.594c-14.876 4.969-27.483 3.765-37.53-3.501-20.766-14.954-21-50.578-21-52.094 0-4.422 3.579-8.001 8.001-8.001s7.999 3.579 7.999 8.001c0 7.999 2.579 30.641 14.343 39.124 5.75 4.126 13.312 4.564 23.125 1.282 4.22-1.422 8.72 0.859 10.126 5.063 1.392 4.188-0.875 8.72-5.063 10.126zM104.030 391.996c-13.232 0-23.998-10.766-23.998-24s10.766-23.998 23.998-23.998c13.234 0 24 10.764 24 23.998s-10.766 24-24 24zM104.030 359.999c-4.404 0-7.999 3.593-7.999 7.999s3.595 8.001 7.999 8.001c4.406 0 8.001-3.595 8.001-8.001s-3.595-7.999-8.001-7.999zM232.031 391.996c-13.234 0-24-10.766-24-24s10.766-23.998 24-23.998c13.236 0 24 10.764 24 23.998s-10.766 24-24 24zM232.031 359.999c-4.406 0-7.999 3.593-7.999 7.999s3.593 8.001 7.999 8.001 8.001-3.595 8.001-8.001c0-4.406-3.595-7.999-8.001-7.999zM168.031 552.001c-4.422 0-8.001-3.579-8.001-8.001v-32.001c0-4.422 3.579-7.999 8.001-7.999s7.999 3.577 7.999 7.999v32.001c0 4.422-3.577 8.001-7.999 8.001zM61.685 581.656c-3.122 3.124-8.185 3.124-11.311 0l-15.999-16.001c-3.126-3.122-3.126-8.185 0-11.311 1.562-1.562 3.611-2.343 5.656-2.343 2.049 0 4.093 0.779 5.656 2.343l15.999 15.999c3.126 3.124 3.126 8.187 0 11.313zM109.687 581.656c-3.124 3.124-8.187 3.124-11.313 0l-64-64.002c-3.126-3.124-3.126-8.185 0-11.311 1.562-1.562 3.611-2.343 5.656-2.343 2.049 0 4.093 0.781 5.656 2.343l64.002 64c3.126 3.124 3.126 8.187 0 11.313zM616.035 904.001h-256.002c-4.422 0-8.001-3.577-8.001-7.999s3.579-8.001 8.001-8.001h256.002c4.422 0 8.001 3.579 8.001 8.001s-3.579 7.999-8.001 7.999zM584.036 856h-224.003c-4.422 0-8.001-3.577-8.001-7.999s3.579-8.001 8.001-8.001h224.003c4.422 0 8.001 3.579 8.001 8.001s-3.579 7.999-8.001 7.999zM600.035 808.002h-240.002c-4.422 0-8.001-3.579-8.001-8.001s3.579-7.999 8.001-7.999h240.002c4.422 0 7.999 3.577 7.999 7.999s-3.577 8.001-7.999 8.001zM616.035 760.002h-256.002c-4.422 0-8.001-3.579-8.001-8.001s3.579-7.999 8.001-7.999h256.002c4.422 0 8.001 3.577 8.001 7.999s-3.579 8.001-8.001 8.001zM616.035 712.001h-256.002c-4.422 0-8.001-3.579-8.001-8.001s3.579-8.001 8.001-8.001h256.002c4.422 0 8.001 3.579 8.001 8.001s-3.579 8.001-8.001 8.001zM616.035 663.999h-256.002c-4.422 0-8.001-3.577-8.001-7.999s3.579-8.001 8.001-8.001h256.002c4.422 0 8.001 3.579 8.001 8.001s-3.579 7.999-8.001 7.999z" />
<glyph unicode="&#xe919;" glyph-name="toilet" d="M168.225-53.4l1.383-2.325c3.1-5.158 8.692-8.3 14.708-8.275h788.483c9.425 0 17.067 7.642 17.067 17.067v955.733c0 28.275-22.925 51.2-51.2 51.2h-204.8c-28.275 0-51.2-22.925-51.2-51.2v-460.8h-34.133v460.8c0 28.275-22.925 51.2-51.2 51.2s-51.2-22.925-51.2-51.2v-392.533h-17.067c-7.617-0.033-15.125-1.783-21.967-5.117-3.192 3.275-7.583 5.125-12.167 5.117h-409.6c-28.275 0-51.2-22.925-51.2-51.2 0.033-7.617 1.783-15.125 5.117-21.967-3.275-3.192-5.125-7.583-5.117-12.167 0.017-170.608 46.367-338.008 134.092-484.333zM716.8 908.8c0 9.425 7.642 17.067 17.067 17.067h204.8c9.425 0 17.067-7.642 17.067-17.067v-17.067h-238.933zM716.8 857.6h238.933v-409.6h-238.933zM580.267 499.2v409.6c0 9.425 7.642 17.067 17.067 17.067s17.067-7.642 17.067-17.067v-460.8h-34.133zM529.067 482.133h17.067v-34.133h-17.067c-9.425 0-17.067 7.642-17.067 17.067s7.642 17.067 17.067 17.067zM529.067 413.867h426.667v-443.733h-761.792c-79.325 134.642-122.567 287.483-125.525 443.733zM85.333 482.133h392.533v-34.133h-392.533c-9.425 0-17.067 7.642-17.067 17.067s7.642 17.067 17.067 17.067zM870.4 789.333h-68.267c-9.425 0-17.067-7.642-17.067-17.067v-68.267c0-9.425 7.642-17.067 17.067-17.067h68.267c9.425 0 17.067 7.642 17.067 17.067v68.267c0 9.425-7.642 17.067-17.067 17.067zM853.333 721.067h-34.133v34.133h34.133zM171.983 151.3l31.5 13.133c-15.408 36.933-26.050 75.667-31.658 115.292l-33.808-4.783c6.025-42.492 17.433-84.042 33.967-123.642zM168.342 312.658c-0.767 10.892-1.158 21.967-1.158 32.942h-34.133c0-11.758 0.408-23.658 1.25-35.325z" />
<glyph unicode="&#xe91a;" glyph-name="window" d="M784.477 46.437h32.055v-30.273h-32.055zM848.586 46.437h32.055v-30.273h-32.055zM142.469 704.469h-30.273v175.422h111.305v-30.273h-81.031zM111.305 607.414h32.055v-30.273h-32.055zM880.641 174.664h32.055v-30.273h-32.055zM975.914 110.547v833.453h-207.469v-30.273h177.195v-386.453h-418.508v386.453h193.227v30.273h-672.273v-560.086h30.273v113.094h418.508v-386.461h-418.508v225.289h-30.273v-225.289h-48.086v-94.383h48.086v-64.109h560.078v30.273h-529.805v33.836h609.945v30.273h-658.031v33.844h963.453v-33.844h-48.078v-64.109h-289.398v-30.273h319.664v64.109h48.086v94.383zM78.359 527.273v386.453h418.508v-386.453zM527.133 497.008h418.508v-386.461h-418.508zM720.359 46.437h32.055v-30.273h-32.055zM111.305 671.523h32.055v-30.266h-32.055zM880.641 238.773h32.055v-30.273h-32.055zM816.531 174.664h32.055v-30.273h-32.055z" />
<glyph unicode="&#xe91b;" glyph-name="measuring-tape1" d="M290.132 643.734h-34.133c-103.633-0.125-187.609-84.101-187.734-187.734v-136.531c0-9.43 7.641-17.070 17.062-17.070h375.468c9.43 0 17.070 7.641 17.070 17.070v136.531c-0.125 103.633-84.101 187.609-187.734 187.734zM443.734 336.531h-341.335v119.469c0.109 84.789 68.812 153.5 153.601 153.601h34.133c84.789-0.102 153.5-68.812 153.601-153.601zM1006.936 336.531h-460.804v17.070h17.070c9.422 0 17.062 7.641 17.062 17.062v85.336c0 9.422-7.641 17.062-17.062 17.062h-17.937c-9.039 134.32-120.508 238.718-255.132 238.937h-34.133c-141.32-0.156-255.836-114.68-256-256v-204.804c0-9.422 7.641-17.062 17.062-17.062h972.803v-51.203h34.133v136.539c0 9.422-7.641 17.062-17.062 17.062zM34.133 456c0.141 122.476 99.39 221.726 221.867 221.867h34.133c122.476-0.141 221.726-99.39 221.867-221.867v-187.734h-477.867zM955.733 268.266v17.070h-34.133v-17.070h-34.133v17.070h-34.141v-17.070h-34.133v17.070h-34.133v-17.070h-34.133v17.070h-34.133v-17.070h-34.133v17.070h-34.133v-17.070h-34.133v17.070h-34.133v-17.070h-34.133v34.133h443.734v-34.133z" />
<glyph unicode="&#xe91c;" glyph-name="circular-ruler" d="M196 313c0-11.047-8.953-20-20-20s-20 8.953-20 20 8.953 20 20 20 20-8.953 20-20zM784 314c0 44.133-17.094 112.891-65.063 173.516-36.273 45.844-101.617 100.484-206.938 100.484-105.258 0-169.625-54.742-205.078-100.672-46.391-60.086-62.922-128.93-62.922-173.328 0-11.047 8.953-20 20-20h208.047c10.852 0 19.727 8.656 20 19.508 0.266 10.93 9.031 19.492 19.953 19.492s19.688-8.563 19.953-19.492c0.273-10.852 9.141-19.508 20-19.508h212.047c11.047 0 20 8.953 20 20zM568.25 334c-8.43 22.938-30.32 39-56.25 39s-47.82-16.063-56.25-39h-170.547c9.648 84.156 78.078 214 226.797 214 89.32 0 144.773-46.391 175.563-85.305 34.633-43.766 50.695-92.867 55.117-128.695zM1004 334h-44.609c-10.438 238.898-207.117 430-447.391 430s-436.953-191.102-447.391-430h-44.609c-11.047 0-20-8.953-20-20v-160c0-11.047 8.953-20 20-20h984c11.047 0 20 8.953 20 20v160c0 11.047-8.953 20-20 20zM984 174h-944v120h44.172c11.047 0 20 8.953 20 20 0 226.078 182.953 410 407.828 410s407.828-183.922 407.828-410c0-11.047 8.953-20 20-20h44.172zM432 254h-240c-11.023 0-20-8.977-20-20s8.977-20 20-20h240c11.023 0 20 8.977 20 20s-8.977 20-20 20zM512 254c-11.023 0-20-8.977-20-20s8.977-20 20-20 20 8.977 20 20-8.977 20-20 20zM832 254h-240c-11.023 0-20-8.977-20-20s8.977-20 20-20h240c11.023 0 20 8.977 20 20s-8.977 20-20 20zM179.922 369.281c1.5-0.344 2.977-0.5 4.438-0.5 9.141 0 17.383 6.297 19.5 15.578 2.438 10.758-4.297 21.484-15.078 23.938-10.758 2.445-21.484-4.297-23.922-15.078-2.461-10.758 4.281-21.477 15.063-23.938zM708.922 561.156c3.68-2.938 8.078-4.359 12.453-4.359 5.883 0 11.703 2.563 15.641 7.523 6.906 8.641 5.484 21.219-3.156 28.102-8.641 6.898-21.219 5.477-28.102-3.164-6.898-8.617-5.477-21.219 3.164-28.102zM511.922 630c11.039 0 20 8.961 19.977 20 0 11.063-8.938 20-20 20-11.039 0-20-8.961-19.977-20 0-11.039 8.961-20 20-20zM582.242 622.156c1.5-0.313 2.977-0.5 4.438-0.5 9.141 0 17.383 6.305 19.5 15.586 2.438 10.781-4.32 21.5-15.078 23.938-10.781 2.438-21.5-4.297-23.945-15.078-2.438-10.781 4.305-21.484 15.086-23.945zM649.023 598.844c2.797-1.367 5.758-2 8.656-2 7.438 0 14.602 4.18 18.039 11.313 4.805 9.961 0.625 21.922-9.336 26.703-9.945 4.797-21.898 0.617-26.703-9.32-4.781-9.961-0.617-21.922 9.344-26.695zM820.102 384.562c2.102-9.281 10.359-15.563 19.477-15.563 1.484 0 2.961 0.156 4.461 0.5 10.758 2.461 17.523 13.18 15.063 23.961-2.461 10.758-13.18 17.5-23.961 15.039-10.766-2.461-17.5-13.156-15.039-23.938zM774.617 503.617c4.383 0 8.781 1.422 12.484 4.383 8.617 6.898 10.016 19.477 3.141 28.102-6.898 8.641-19.484 10.039-28.125 3.141-8.617-6.898-10.039-19.484-3.141-28.102 3.961-4.938 9.781-7.523 15.641-7.523zM814.719 440c2.922 0 5.883 0.641 8.68 1.977 9.961 4.82 14.125 16.781 9.32 26.727-4.82 9.938-16.758 14.094-26.719 9.297-9.938-4.797-14.102-16.758-9.297-26.703 3.453-7.141 10.594-11.297 18.016-11.297zM200.523 441.797c2.797-1.336 5.758-1.977 8.68-1.977 7.414 0 14.555 4.156 18.016 11.297 4.805 9.961 0.625 21.922-9.32 26.727-9.961 4.797-21.898 0.617-26.695-9.32-4.82-9.961-0.641-21.922 9.32-26.727zM236.797 507.859c3.703-2.938 8.102-4.359 12.484-4.359 5.875 0 11.68 2.563 15.641 7.523 6.898 8.617 5.477 21.219-3.164 28.094-8.617 6.906-21.219 5.484-28.102-3.141-6.898-8.633-5.477-21.219 3.141-28.117zM437.141 621.617c1.461 0 2.961 0.18 4.438 0.5 10.781 2.461 17.523 13.18 15.063 23.945-2.438 10.781-13.164 17.516-23.922 15.078-10.781-2.461-17.516-13.18-15.078-23.938 2.117-9.281 10.359-15.586 19.5-15.586zM366.156 596.781c2.922 0 5.883 0.641 8.688 1.977 9.938 4.805 14.117 16.766 9.313 26.703-4.797 9.961-16.758 14.117-26.695 9.336-9.961-4.797-14.141-16.758-9.32-26.719 3.438-7.141 10.578-11.297 18.016-11.297zM302.5 556.703c4.383 0 8.781 1.414 12.461 4.359 8.641 6.898 10.039 19.477 3.156 28.117-6.898 8.617-19.477 10.039-28.117 3.141-8.617-6.898-10.039-19.477-3.141-28.102 3.938-4.961 9.758-7.516 15.641-7.516zM868 313c0-11.047-8.953-20-20-20s-20 8.953-20 20 8.953 20 20 20 20-8.953 20-20z" />
<glyph unicode="&#xe91d;" glyph-name="closet" d="M775.586 960h-526.977c-58.781 0-106.609-47.828-106.609-106.609v-707.031c0-57.563 45.859-104.617 102.961-106.547v-73.805c0-16.57 13.438-30.008 30.008-30.008 16.578 0 30.008 13.438 30.008 30.008v73.742h412.687v-73.742c0-16.57 13.43-30.008 30.008-30.008 16.57 0 30.008 13.438 30.008 30.008v73.766c57.828 1.117 104.523 48.5 104.523 106.586v707.031c0 58.781-47.828 106.609-106.617 106.609zM822.18 853.391v-572.422h-280.070v619.016h233.477c25.695 0 46.594-20.906 46.594-46.594zM248.609 899.984h233.484v-619.016h-280.078v572.422c0 25.688 20.898 46.594 46.594 46.594zM775.586 99.766h-526.977c-25.695 0-46.594 20.906-46.594 46.594v74.594h620.164v-74.594c0-25.688-20.898-46.594-46.594-46.594zM369.844 190.383h-67.992c-16.57 0-30.008-13.438-30.008-30.008s13.438-30.008 30.008-30.008h67.992c16.57 0 30.008 13.438 30.008 30.008s-13.438 30.008-30.008 30.008zM720.789 190.383h-67.992c-16.57 0-30.008-13.438-30.008-30.008s13.438-30.008 30.008-30.008h67.992c16.57 0 30.008 13.438 30.008 30.008s-13.438 30.008-30.008 30.008zM610.609 515.836c16.57 0 30.008 13.438 30.008 30.008v67.992c0 16.57-13.438 30.008-30.008 30.008s-30.008-13.438-30.008-30.008v-67.992c0-16.57 13.438-30.008 30.008-30.008zM412.93 515.836c16.578 0 30.008 13.438 30.008 30.008v67.992c0 16.57-13.43 30.008-30.008 30.008-16.57 0-30.008-13.438-30.008-30.008v-67.992c0-16.57 13.438-30.008 30.008-30.008z" />
<glyph unicode="&#xe91e;" glyph-name="demolition-hammer" d="M119.168-8.828c8.333-8.344 19.24-12.5 30.157-12.5 10.927 0 21.834 4.156 30.167 12.5l492.505 492.505 108.512-108.501c8.333-8.344 19.24-12.5 30.157-12.5 10.927 0 21.834 4.156 30.167 12.5l170.668 170.668c16.667 16.656 16.667 43.667 0 60.324l-298.649 298.649c-1.979 2.010-4.177 3.781-6.542 5.354-1.010 0.688-2.115 1.135-3.156 1.729-1.396 0.771-2.719 1.604-4.188 2.198-1.385 0.583-2.833 0.896-4.26 1.323-1.24 0.365-2.417 0.833-3.698 1.094-2.75 0.531-5.542 0.833-8.344 0.833h-170.668c-2.792 0-5.583-0.302-8.354-0.833-1.281-0.26-2.458-0.729-3.698-1.094-1.427-0.427-2.875-0.74-4.26-1.323-1.479-0.594-2.802-1.427-4.188-2.198-1.042-0.573-2.146-1.042-3.156-1.729-2.344-1.573-4.542-3.344-6.542-5.354l-85.313-85.313c-16.667-16.656-16.667-43.667 0-60.324l108.501-108.501-97.834-97.845c-16.667-16.656-16.667-43.667 0-60.324 8.333-8.344 19.24-12.5 30.157-12.5 10.927 0 21.834 4.156 30.167 12.5l97.834 97.834 46.344-46.334-462.328-462.328-46.334 46.323 247.169 247.169c16.667 16.656 16.667 43.667 0 60.324-16.656 16.667-43.667 16.667-60.324 0l-277.336-277.336c-16.667-16.656-16.667-43.667 0-60.324zM529.662 832.014h135.345l256.003-256.003-110.345-110.324-323.67 323.66z" />
<glyph unicode="&#xe91f;" glyph-name="domotica" d="M1024 256c-0.070 58.882-47.786 106.596-106.666 106.666h-149.334v83.050c0.4 31.844-22.064 59.402-53.334 65.43-3.538 0.598-7.12 0.898-10.708 0.896-35.346-0.024-63.982-28.696-63.958-64.042v-298.666c0.028-24.018 7.99-46.174 21.398-64h-0.064c-11.782 0-21.334-9.552-21.334-21.334v-106.666c0-11.782 9.552-21.334 21.334-21.334h341.334c11.782 0 21.334 9.552 21.334 21.334v106.666c0 11.782-9.552 21.334-21.334 21.334h-0.064c13.408 17.826 21.368 39.982 21.398 64v106.666zM981.334-21.334h-298.668v64h298.666v-64zM746.666 85.334c-35.346 0-64 28.654-64 64v298.666c0 11.782 9.552 21.334 21.334 21.334 1.252-0.002 2.5-0.108 3.734-0.32 10.652-2.604 18.006-12.338 17.6-23.296v-104.384c0-11.782 9.552-21.334 21.334-21.334h170.666c35.346 0 64-28.654 64-64v-106.666c0-35.346-28.654-64-64-64h-170.668zM399.082 292.416c-31.894 31.894-83.604 31.894-115.498 0l-91.584-91.584v695.168c0 11.782 9.552 21.334 21.334 21.334h640c11.782 0 21.334-9.552 21.334-21.334v-512h42.666v512c0 35.346-28.654 64-64 64h-640c-35.346 0-64-28.654-64-64v-385.564c-72.322-10.422-127.914-72.58-128-147.77v-298.666c-11.782 0-21.334-9.552-21.334-21.334v-85.334c0-11.78 9.552-21.332 21.334-21.332h277.334c11.782 0 21.334 9.552 21.334 21.334v85.334c0 11.782-9.552 21.334-21.334 21.334h-12.502l85.334 85.334h225.834v42.664h-186.366c19.312 31.462 15.364 73.166-11.886 100.416zM277.334-21.334h-234.668v42.666h234.666v-42.666zM64 64v298.666c0.056 50.672 35.698 94.334 85.334 104.534v-317.866c0.002-5.656 2.248-11.078 6.246-15.078 8.33-8.332 21.838-8.334 30.17-0.004l128 128c15.090 14.456 38.892 14.456 53.982 0 15.562-14.906 16.092-39.606 1.186-55.168l-143.084-143.084h-161.834zM405.334 768v42.666c0 35.346-28.654 64-64 64h-42.666c-35.346 0-64-28.654-64-64v-42.666c0-35.346 28.654-64 64-64h42.666c35.346 0 64 28.654 64 64zM362.666 768c0-11.782-9.552-21.334-21.334-21.334h-42.666c-11.782 0-21.334 9.552-21.334 21.334v42.666c0 11.782 9.552 21.334 21.334 21.334h42.666c11.782 0 21.334-9.552 21.334-21.334v-42.666zM554.666 874.666h-42.666c-35.346 0-64-28.654-64-64v-42.666c0-35.346 28.654-64 64-64h42.666c35.346 0 64 28.654 64 64v42.666c0 35.346-28.654 64-64 64zM576 768c0-11.782-9.552-21.334-21.334-21.334h-42.666c-11.782 0-21.334 9.552-21.334 21.334v42.666c0 11.782 9.552 21.334 21.334 21.334h42.666c11.782 0 21.334-9.552 21.334-21.334v-42.666zM832 810.666c0 35.346-28.654 64-64 64h-42.666c-35.346 0-64-28.654-64-64v-42.666c0-35.346 28.654-64 64-64h42.666c35.346 0 64 28.654 64 64v42.666zM789.334 768c0-11.782-9.552-21.334-21.334-21.334h-42.666c-11.782 0-21.334 9.552-21.334 21.334v42.666c0 11.782 9.552 21.334 21.334 21.334h42.666c11.782 0 21.334-9.552 21.334-21.334v-42.666zM341.334 362.666v67.656c24.854 8.788 42.666 32.48 42.666 60.344s-17.812 51.556-42.666 60.344v110.322h-42.666v-110.322c-24.856-8.786-42.668-32.48-42.668-60.344s17.812-51.556 42.666-60.344v-67.656h42.668zM320 512c11.782 0 21.334-9.552 21.334-21.334s-9.552-21.334-21.334-21.334-21.334 9.552-21.334 21.334c0 11.782 9.552 21.334 21.334 21.334zM554.666 423.010v238.324h-42.666v-238.322c-24.854-8.788-42.666-32.48-42.666-60.344 0-35.346 28.654-64 64-64s64 28.654 64 64c0 27.862-17.812 51.556-42.668 60.342zM533.334 341.334c-11.782 0-21.334 9.552-21.334 21.334s9.552 21.334 21.334 21.334c11.782 0 21.334-9.552 21.334-21.334-0.002-11.784-9.552-21.334-21.334-21.334zM661.334 661.334h170.666v-42.666h-170.666v42.666zM661.334 576h170.666v-42.666h-170.666v42.666z" />
<glyph unicode="&#xe920;" glyph-name="gate-iron" d="M971.168 744.864c30.942 12.52 52.832 42.826 52.832 78.158 0 46.488-37.876 84.31-84.432 84.31-46.554 0-84.43-37.822-84.43-84.31 0-35.318 21.87-65.614 52.79-78.144-28.466-12.266-48.45-40.59-48.45-73.504v-42.174c-32.57 42.2-72.678 78.318-118.624 106.356-5.584 3.408-11.244 6.672-16.958 9.818v52.238c0 16.568-13.432 30-30 30s-30-13.432-30-30v-24.85c-39.092 14.402-80.122 23.214-121.896 26.068v38.7c0 16.568-13.432 30-30 30s-30-13.432-30-30v-38.702c-41.774-2.854-82.806-11.666-121.898-26.068v24.852c0 16.568-13.432 30-30 30s-30-13.432-30-30v-52.236c-5.714-3.146-11.372-6.41-16.958-9.818-45.946-28.038-86.052-64.156-118.624-106.356v42.174c0 32.9-19.968 61.214-48.49 73.488 30.94 12.52 52.83 42.826 52.83 78.158 0 46.488-37.876 84.31-84.43 84.31s-84.43-37.82-84.43-84.31c0-35.318 21.87-65.614 52.792-78.144-28.466-12.266-48.45-40.59-48.45-73.504v-652.708c0-16.568 13.432-30 30-30h100.18c16.568 0 30 13.432 30 30v60.154h694.958v-60.154c0-16.568 13.432-30 30-30h100.18c16.568 0 30 13.432 30 30v652.71c-0.002 32.9-19.968 61.214-48.492 73.488zM64.342 671.376c0 11.028 8.972 20 20.18 20 11.028 0 20-8.972 20-20v-622.708h-40.18v622.708zM939.658 691.376c11.028 0 20-8.972 20-20v-622.708h-40.18v622.708c0 11.028 8.974 20 20.18 20zM542 138.822v202.366h121.898v-202.368h-121.898zM360.102 138.822v202.366h121.898v-202.368h-121.898zM164.522 341.188h135.58v-202.368h-135.58v202.368zM723.898 341.188h135.58v-202.368h-135.58v202.368zM939.568 847.332c13.472 0 24.432-10.906 24.432-24.31s-10.958-24.308-24.432-24.308c-13.47 0-24.43 10.904-24.43 24.308s10.96 24.31 24.43 24.31zM849.11 534.15l10.37-20.22v-112.742h-135.58v274.294c51.984-35.012 95.35-83.106 125.21-141.332zM663.898 708.392v-307.202h-121.898v337.486c42.69-3.328 83.794-13.7 121.898-30.284zM482 738.676v-337.486h-121.898v307.202c38.104 16.584 79.208 26.956 121.898 30.284zM174.89 534.15c29.86 58.226 73.224 106.32 125.21 141.33v-274.292h-135.58v112.742l10.37 20.22zM84.432 847.332c13.47 0 24.43-10.906 24.43-24.31s-10.958-24.308-24.43-24.308c-13.474 0-24.432 10.904-24.432 24.308s10.958 24.31 24.432 24.31z" />
<glyph unicode="&#xe921;" glyph-name="measuring-tape" d="M290.132 643.734h-34.133c-103.633-0.125-187.609-84.101-187.734-187.734v-136.531c0-9.43 7.641-17.070 17.062-17.070h375.468c9.43 0 17.070 7.641 17.070 17.070v136.531c-0.125 103.633-84.101 187.609-187.734 187.734zM443.734 336.531h-341.335v119.469c0.109 84.789 68.812 153.5 153.601 153.601h34.133c84.789-0.102 153.5-68.812 153.601-153.601zM1006.936 336.531h-460.804v17.070h17.070c9.422 0 17.062 7.641 17.062 17.062v85.336c0 9.422-7.641 17.062-17.062 17.062h-17.937c-9.039 134.32-120.508 238.718-255.132 238.937h-34.133c-141.32-0.156-255.836-114.68-256-256v-204.804c0-9.422 7.641-17.062 17.062-17.062h972.803v-51.203h34.133v136.539c0 9.422-7.641 17.062-17.062 17.062zM34.133 456c0.141 122.476 99.39 221.726 221.867 221.867h34.133c122.476-0.141 221.726-99.39 221.867-221.867v-187.734h-477.867zM955.733 268.266v17.070h-34.133v-17.070h-34.133v17.070h-34.141v-17.070h-34.133v17.070h-34.133v-17.070h-34.133v17.070h-34.133v-17.070h-34.133v17.070h-34.133v-17.070h-34.133v17.070h-34.133v-17.070h-34.133v34.133h443.734v-34.133z" />
<glyph unicode="&#xe922;" glyph-name="plan" d="M1003.42 960h-982.84c-11.363 0-20.576-9.213-20.576-20.576v-982.849c0-11.363 9.213-20.576 20.576-20.576h599.436c11.363 0 20.571 9.213 20.571 20.576s-9.208 20.576-20.571 20.576h-578.86v479.562h286.99v-197.251c0-11.363 9.213-20.576 20.576-20.576s20.576 9.213 20.576 20.576v430.813c0 11.363-9.213 20.576-20.576 20.576s-20.576-9.213-20.576-20.576v-192.41h-286.99v420.984h558.289v-257.628c0-11.363 9.208-20.576 20.571-20.576h217.597c11.363 0 20.571 9.213 20.571 20.576s-9.208 20.576-20.571 20.576h-197.026v237.053h342.262v-638.815h-362.833c-11.363 0-20.571-9.213-20.571-20.576s9.208-20.576 20.571-20.576h362.833v-261.74h-145.236c-11.363 0-20.571-9.213-20.571-20.576s9.208-20.576 20.571-20.576h165.807c11.363 0 20.571 9.213 20.571 20.576v982.858c0.004 11.363-9.204 20.576-20.571 20.576z" />
<glyph unicode="&#xe923;" glyph-name="interior-design" d="M1005.52 790.116c-10.206 0-18.48-8.274-18.48-18.48v-798.674h-147.768v41.614h88.442c10.206 0 18.48 8.274 18.48 18.48v326.76c0 10.206-8.274 18.48-18.48 18.48h-78.968v40.844h78.968c10.206 0 18.48 8.274 18.48 18.48v426.864c0 10.206-8.274 18.48-18.48 18.48h-376.812c-10.206 0-18.48-8.274-18.48-18.48v-267.696h-40.846v267.696c0 10.206-8.274 18.48-18.48 18.48h-376.81c-10.206 0-18.48-8.274-18.48-18.48v-426.862c0-10.206 8.274-18.48 18.48-18.48h66.824c10.206 0 18.48 8.274 18.48 18.48s-8.274 18.48-18.48 18.48h-48.344v42.214h78.42c65.378 0 118.566 53.188 118.566 118.564v229.124h142.864v-267.696c0-10.206 8.274-18.48 18.48-18.48h77.806c10.206 0 18.48 8.274 18.48 18.48v267.696h339.85v-47.544h-48.802c-10.206 0-18.48-8.274-18.48-18.48v-253.794c0-10.206 8.274-18.48 18.48-18.48h48.802v-51.604h-78.968c-10.206 0-18.48-8.274-18.48-18.48v-77.804c0-10.206 8.274-18.48 18.48-18.48h78.968v-289.8h-88.444c-10.206 0-18.48-8.274-18.48-18.48v-78.576c0-10.206 8.274-18.48 18.48-18.48h184.726c10.206 0 18.48 8.274 18.48 18.48v817.154c0.006 10.206-8.268 18.48-18.474 18.48zM274.794 616.88h-0.002c0-44.996-36.608-81.604-81.606-81.604h-78.42v310.728h13.484v-11.946c0-10.206 8.274-18.48 18.48-18.48s18.48 8.274 18.48 18.48v11.946h11.088v-48.906c0-10.206 8.274-18.48 18.48-18.48s18.48 8.274 18.48 18.48v48.906h11.088v-11.946c0-10.206 8.274-18.48 18.48-18.48s18.48 8.274 18.48 18.48v11.946h13.486v-229.124zM909.234 544.664h-30.322v216.836h30.322v-216.836zM1005.52 959.998h-987.040c-10.206 0-18.48-8.274-18.48-18.48v-987.038c0-10.206 8.274-18.48 18.48-18.48h653.458c10.206 0 18.48 8.274 18.48 18.48v78.576c0 10.206-8.274 18.48-18.48 18.48h-102.556v179.914c0 10.206-8.274 18.48-18.48 18.48h-77.806c-10.206 0-18.48-8.274-18.48-18.48v-179.914h-339.85v42.344h56.194c17.366 0 32.712 8.752 41.906 22.066 16.072-8.328 34.54-12.788 53.94-12.788 57.644 0 104.542 40.294 104.542 89.822 0 14.706-4.208 29.29-12.168 42.176-5.362 8.68-16.752 11.376-25.434 6.010-8.684-5.364-11.374-16.75-6.010-25.434 4.414-7.146 6.65-14.8 6.65-22.752 0-29.146-30.318-52.86-67.58-52.86-16.628 0-32.582 4.868-44.934 13.518v78.686c12.352 8.648 28.306 13.518 44.934 13.518 10.76 0 21.048-1.942 30.578-5.768 9.466-3.804 20.232 0.794 24.034 10.266s-0.794 20.232-10.266 24.034c-13.93 5.594-28.848 8.43-44.35 8.43-19.402 0-37.874-4.46-53.952-12.794-9.194 13.304-24.534 22.050-41.896 22.050h-56.188v49.28h510.056c10.206 0 18.48 8.274 18.48 18.48v77.804c0 10.206-8.274 18.48-18.48 18.48h-402.576c-10.206 0-18.48-8.274-18.48-18.48s8.274-18.48 18.48-18.48h384.098v-40.844h-510.058c-10.206 0-18.48-8.274-18.48-18.48v-326.762c0-10.206 8.274-18.48 18.48-18.48h376.812c10.206 0 18.48 8.274 18.48 18.48v179.914h40.846v-179.914c0-10.206 8.274-18.48 18.48-18.48h102.556v-41.614h-616.5v950.074h950.080v-85.696c0-10.206 8.274-18.48 18.48-18.48s18.48 8.274 18.48 18.48v104.176c0 10.206-8.274 18.48-18.48 18.48zM114.766 255.092l56.194 0.002c7.696 0 13.954-6.258 13.954-13.954v-96.348c0-7.692-6.258-13.954-13.954-13.954h-56.194v124.254zM772.48 798.46h-136.43c-10.206 0-18.48-8.274-18.48-18.48v-253.794c0-10.206 8.274-18.48 18.48-18.48h136.43c10.206 0 18.48 8.274 18.48 18.48v253.794c0 10.206-8.274 18.48-18.48 18.48zM754 605.034h-35.25v96.098h35.25v-96.098zM754 738.092h-53.73c-10.206 0-18.48-8.274-18.48-18.48v-133.058c0-10.206 8.274-18.48 18.48-18.48h53.73v-23.408h-99.47v216.834h99.47v-23.408zM280.134 192.972c0-10.206-8.274-18.48-18.48-18.48s-18.48 8.274-18.48 18.48c0 10.206 8.274 18.48 18.48 18.48s18.48-8.274 18.48-18.48zM213.262 602.444c0-10.206-8.274-18.48-18.48-18.48s-18.48 8.274-18.48 18.48c0 10.206 8.274 18.48 18.48 18.48s18.48-8.274 18.48-18.48z" />
<glyph unicode="&#xe924;" glyph-name="tile-floor" d="M1013.674 423.638l-291.968 175.19 36.438 23.21c6.144 3.926 9.856 10.71 9.856 18.006s-3.712 14.080-9.856 18.006l-234.666 149.332c-6.998 4.438-15.914 4.438-22.912 0l-234.666-149.334c-6.144-3.968-9.856-10.752-9.856-18.048s3.712-14.080 9.856-18.006l36.438-23.21-291.97-175.19c-6.4-3.84-10.326-10.752-10.368-18.218 0-7.466 3.84-14.378 10.24-18.304l490.666-298.666c3.414-2.048 7.254-3.114 11.094-3.114s7.68 1.024 11.094 3.114l490.666 298.666c6.4 3.882 10.282 10.838 10.24 18.304 0.042 7.51-3.926 14.422-10.326 18.262zM271.872 277.802l-209.28 127.402 210.986 126.592 198.698-126.464-200.404-127.53zM512.086 430.634l-197.546 125.696 28.118 16.854 157.91-100.522c3.498-2.218 7.466-3.328 11.478-3.328 4.010 0 7.978 1.11 11.478 3.328l157.994 100.522 28.118-16.854-197.55-125.696zM752.17 277.802l-200.406 127.53 198.698 126.464 210.986-126.592-209.278-127.402z" />
<glyph unicode="&#xe925;" glyph-name="furniture-kitchen" d="M720 238h184v-60h-184zM480 418h-60v-60h-60v120h-60v-120h-60v60h-60v-60h-180v-422h1024v422h-544zM600 298v-302h-240v302zM60 298h240v-302h-240zM964-4h-304v302h304zM902 754.203v205.797h-180v-205.797l-62-40.656v246.453h-660v-422h1024v136.203zM60 900h240v-302h-240zM600 598h-240v302h240zM964 598h-304v43.797l122 80v178.203h60v-178.203l122-80zM420 238h60v-60h-60zM180 238h60v-60h-60zM420 718h60v-60h-60zM180 718h60v-60h-60z" />
<glyph unicode="&#xe926;" glyph-name="hand-shake" d="M808.534 329.18c-20.096 41.898-91.99 100.054-161.45 156.246-38.742 31.318-75.35 60.928-98.688 84.266-5.846 5.888-14.592 7.766-22.314 4.992-14.378-5.206-23.254-9.216-30.25-12.33-10.666-4.778-14.25-6.4-28.63-7.85-6.358-0.64-12.074-4.054-15.616-9.344-30.166-45.098-61.398-41.258-82.262-34.262-6.656 2.218-7.85 5.078-8.49 7.808-4.48 18.73 18.006 62.336 47.146 91.478 69.334 69.376 105.088 86.742 180.608 52.992 85.674-38.314 171.52-68.31 172.374-68.608 11.222-3.882 23.296 2.006 27.178 13.142 3.84 11.136-2.006 23.296-13.142 27.178-0.854 0.298-84.992 29.696-168.96 67.286-97.834 43.734-151.51 14.934-228.182-61.782-29.184-29.184-68.822-88.234-58.582-131.542 4.394-18.432 17.366-32.086 36.65-38.442 48.342-15.958 92.458-0.682 125.312 42.922 13.568 2.090 20.95 5.162 32.042 10.154 4.010 1.792 8.704 3.882 14.934 6.4 24.406-22.912 57.344-49.578 92.032-77.61 62.72-50.73 133.846-108.246 149.846-141.526 7.894-16.426-0.598-27.136-6.358-32.042-8.448-7.254-20.010-9.558-26.282-5.162-6.912 4.736-15.914 5.034-23.040 0.768-7.168-4.266-11.178-12.33-10.282-20.608 1.45-13.568-10.966-21.334-16.342-24.022-13.654-6.912-27.904-5.718-33.238-0.768-5.974 5.546-14.55 7.168-22.144 4.352-7.594-2.858-12.886-9.856-13.654-17.962-1.28-13.994-11.648-27.434-25.174-32.682-6.528-2.474-16-3.968-24.49 3.798-5.29 4.778-12.63 6.614-19.498 4.95-6.954-1.706-12.544-6.742-14.976-13.44-0.81-2.134-2.646-7.254-22.614-7.254-14.208 0-39.766 9.6-52.266 17.878-14.976 9.856-108.886 79.914-189.994 147.84-11.392 9.6-31.104 30.166-48.512 48.342-15.446 16.128-29.568 30.762-36.822 36.906-9.088 7.68-22.528 6.528-30.080-2.518-7.594-9.002-6.486-22.486 2.518-30.080 6.614-5.59 19.414-19.114 33.536-33.834 19.030-19.882 38.698-40.448 51.926-51.542 79.446-66.518 174.934-138.326 193.962-150.826 15.702-10.326 49.536-24.832 75.734-24.832 21.034 0 37.206 4.822 48.426 14.25 15.018-5.846 32.086-5.888 48.512 0.512 19.414 7.51 35.37 22.656 44.416 41.002 16.81-3.584 36.054-1.066 53.546 7.722 17.11 8.618 29.482 21.802 35.626 37.206 16.982-0.896 34.474 5.12 48.938 17.536 24.494 20.948 31.234 53.544 17.070 82.942zM426.666 682.674h-192c-11.776 0-21.334-9.558-21.334-21.334s9.558-21.334 21.334-21.334h192c11.776 0 21.334 9.558 21.334 21.334s-9.558 21.334-21.334 21.334zM871.040 374.578c-6.614 9.77-19.84 12.458-29.61 5.802l-62.378-41.898c-9.77-6.57-12.374-19.84-5.802-29.61 4.138-6.102 10.88-9.43 17.75-9.43 4.054 0 8.192 1.152 11.862 3.626l62.378 41.898c9.768 6.572 12.37 19.84 5.8 29.612zM738.602 272.774c-15.274 12.032-83.584 81.962-125.824 125.994-8.15 8.534-21.674 8.832-30.166 0.64-8.534-8.15-8.79-21.674-0.64-30.166 10.966-11.434 107.69-112.256 130.176-130.006 3.882-3.072 8.576-4.566 13.184-4.566 6.272 0 12.544 2.816 16.81 8.15 7.298 9.218 5.72 22.658-3.54 29.954zM653.354 229.98c-25.558 20.438-89.77 88.662-104.278 104.448-8.022 8.704-21.462 9.216-30.166 1.28-8.662-7.978-9.258-21.504-1.28-30.166 0.768-0.81 77.398-83.542 109.056-108.886 3.926-3.114 8.662-4.65 13.312-4.65 6.23 0 12.458 2.774 16.682 7.978 7.342 9.218 5.848 22.658-3.326 29.996zM568.448 187.014c-30.422 25.642-92.672 91.904-104.832 104.918-8.064 8.618-21.59 9.088-30.166 1.024-8.618-8.064-9.046-21.546-1.024-30.166 17.494-18.73 77.056-81.878 108.502-108.416 4.010-3.37 8.874-5.034 13.738-5.034 6.058 0 12.118 2.602 16.342 7.594 7.594 9.046 6.442 22.486-2.56 30.080zM249.344 719.494c-36.566 34.646-182.784 45.868-226.73 48.47-6.058 0.298-11.648-1.706-15.914-5.76-4.268-4.010-6.7-9.642-6.7-15.53v-384c0-11.776 9.558-21.334 21.334-21.334h128c9.216 0 17.408 5.93 20.266 14.72 3.114 9.558 76.63 235.178 86.314 346.112 0.556 6.486-1.834 12.886-6.57 17.322zM133.76 384.006h-91.094v339.798c68.566-5.418 142.55-17.194 169.43-30.25-11.306-93.44-62.464-259.456-78.336-309.548zM1002.666 725.34c-167.51 0-260.438-42.88-264.32-44.672-5.546-2.602-9.686-7.424-11.392-13.27s-0.854-12.118 2.346-17.322c26.368-42.454 108.928-278.23 124.8-335.744 2.56-9.258 10.966-15.658 20.566-15.658h128c11.776 0 21.334 9.558 21.334 21.334v384c0 11.818-9.558 21.332-21.334 21.332zM981.334 341.34h-90.71c-20.224 65.878-79.958 237.654-113.28 308.65 32.554 11.050 102.486 30.038 203.99 32.426v-341.076z" />
<glyph unicode="&#xe927;" glyph-name="ilumination" d="M1009 460h-994c-8.281 0-15-6.711-15-15v-125c0-8.289 6.719-15 15-15s15 6.711 15 15v50h964v-404h-964v289.336c0 8.281-6.719 15-15 15s-15-6.719-15-15v-304.336c0-8.289 6.719-15 15-15h994c8.289 0 15 6.711 15 15v494c0 8.289-6.711 15-15 15zM30 400v30h964v-30zM1009 960h-994c-8.281 0-15-6.711-15-15v-60c0-8.289 6.719-15 15-15h182v-91.281c-44.711-3.578-80-41.102-80-86.719 0-12.68 10.32-23 23-23h27.008c-0.008-0.289-0.008-0.57-0.008-0.859 0-24.813 20.188-45 45-45s45 20.188 45 45c0 0.289-0.008 0.57-0.008 0.859h27.008c12.68 0 23 10.32 23 23 0 45.617-35.289 83.141-80 86.719v91.281h270v-91.281c-44.711-3.578-80-41.102-80-86.719 0-12.68 10.32-23 23-23h27.008c-0.008-0.289-0.008-0.57-0.008-0.859 0-24.813 20.188-45 45-45s45 20.188 45 45c0 0.289-0.008 0.57-0.008 0.859h27.008c12.68 0 23 10.32 23 23 0 45.617-35.289 83.141-80 86.719v91.281h177c8.289 0 15 6.711 15 15s-6.711 15-15 15h-674v30h964v-30h-226c-8.289 0-15-6.711-15-15s6.711-15 15-15h29v-91.281c-44.711-3.578-80-41.102-80-86.719 0-12.68 10.32-23 23-23h27.008c-0.008-0.289-0.008-0.57-0.008-0.859 0-24.813 20.188-45 45-45s45 20.188 45 45c0 0.289-0.008 0.57-0.008 0.859h27.008c12.68 0 23 10.32 23 23 0 45.617-35.289 83.141-80 86.719v91.281h182c8.289 0 15 6.711 15 15v60c0 8.289-6.711 15-15 15zM227 668.141c0-8.273-6.727-15-15-15s-15 6.727-15 15c0 0.289 0.008 0.578 0.023 0.859h29.953c0.016-0.281 0.023-0.57 0.023-0.859zM276.57 699h-38.867c-0.172 0-0.344 0-0.523 0h-50.344c-0.188 0.008-0.367 0.008-0.555 0h-38.852c3.461 28.141 27.508 50 56.57 50h16c29.063 0 53.109-21.859 56.57-50zM527 668.141c0-8.273-6.727-15-15-15s-15 6.727-15 15c0 0.289 0.008 0.578 0.023 0.859h29.953c0.016-0.281 0.023-0.57 0.023-0.859zM576.57 699h-38.922c-0.141 0-0.281 0-0.422 0h-50.391c-0.188 0.008-0.367 0.008-0.555 0h-38.852c3.453 28.141 27.508 50 56.57 50h16c29.063 0 53.109-21.859 56.57-50zM827 668.141c0-8.273-6.727-15-15-15s-15 6.727-15 15c0 0.289 0.008 0.578 0.023 0.859h29.953c0.016-0.281 0.023-0.57 0.023-0.859zM876.57 699h-38.922c-0.141 0-0.281 0-0.422 0h-50.453c-0.141 0-0.281 0-0.422 0h-38.922c3.461 28.141 27.516 50 56.57 50h16c29.063 0 53.109-21.859 56.57-50zM482-4c8.281 0 15 6.711 15 15v314c0 8.289-6.719 15-15 15h-407c-8.281 0-15-6.711-15-15v-314c0-8.289 6.719-15 15-15zM90 310h377v-284h-377zM422 280h-287c-8.281 0-15-6.711-15-15v-194c0-8.289 6.719-15 15-15h287c8.281 0 15 6.711 15 15v194c0 8.289-6.719 15-15 15zM407 86h-257v164h257zM896-4h53c8.289 0 15 6.711 15 15v314c0 8.289-6.711 15-15 15h-407c-8.289 0-15-6.711-15-15v-314c0-8.289 6.711-15 15-15h290c8.289 0 15 6.711 15 15s-6.711 15-15 15h-275v284h377v-284h-38c-8.289 0-15-6.711-15-15s6.711-15 15-15zM904 71v194c0 8.289-6.711 15-15 15h-287c-8.289 0-15-6.711-15-15v-194c0-8.289 6.711-15 15-15h287c8.289 0 15 6.711 15 15zM874 86h-257v164h257z" />
<glyph unicode="&#xe928;" glyph-name="experience" d="M881.652 575.618c12.599 33.224 8.070 70.517-12.115 99.76l-14.242 20.638c-5.559 8.049-9.12 17.44-10.299 27.157l-3.022 24.89c-4.286 35.277-25.625 66.194-57.091 82.706l-22.197 11.651c-8.666 4.546-16.183 11.21-21.746 19.263l-14.239 20.632c-20.184 29.243-53.449 46.704-88.984 46.704h-25.070c-9.787 0-19.541 2.405-28.207 6.952l-22.197 11.651c-31.459 16.512-69.030 16.515-100.495 0l-22.197-11.651c-8.669-4.546-18.423-6.952-28.207-6.952h-25.070c-35.531 0-68.799-17.461-88.984-46.704l-14.239-20.628c-5.563-8.056-13.080-14.717-21.746-19.266l-22.197-11.651c-31.462-16.512-52.805-47.429-57.091-82.709l-3.022-24.883c-1.179-9.716-4.74-19.107-10.302-27.163l-14.239-20.632c-20.184-29.243-24.714-66.54-12.115-99.764l8.89-23.433c3.469-9.154 4.682-19.124 3.5-28.844l-3.022-24.883c-4.286-35.274 9.039-70.402 35.64-93.964l18.765-16.624c7.324-6.488 13.029-14.754 16.502-23.908l8.89-23.437c9.347-24.653 27.255-44.712 49.963-56.905l-97.938-238.904c-3.605-8.795-1.613-18.894 5.068-25.659 6.684-6.769 16.756-8.886 25.591-5.39l108.016 42.7 46.962-106.231c3.801-8.598 12.311-14.127 21.685-14.127 0.108 0 0.217 0 0.325 0 9.506 0.129 18.013 5.922 21.621 14.717l99.194 241.969 99.194-241.969c3.605-8.795 12.115-14.588 21.621-14.717 0.105 0 0.213 0 0.325 0 9.377 0 17.884 5.532 21.685 14.127l46.962 106.231 108.016-42.7c8.832-3.493 18.914-1.375 25.591 5.39 6.681 6.765 8.676 16.864 5.068 25.659l-97.938 238.904c22.708 12.193 40.616 32.252 49.963 56.905l8.89 23.437c3.472 9.154 9.178 17.423 16.502 23.911l18.765 16.624c26.601 23.565 39.922 58.69 35.64 93.96l-3.022 24.89c-1.182 9.716 0.030 19.69 3.496 28.837l8.9 23.433zM805.196 439.991l-18.765-16.624c-13.050-11.559-23.217-26.286-29.399-42.591l-8.89-23.44c-7.074-18.65-22.857-32.635-42.229-37.408l-24.341-6c-16.925-4.17-32.77-12.487-45.82-24.050l-18.765-16.624c-14.933-13.226-35.416-18.274-54.774-13.497l-24.341 5.996c-16.925 4.174-34.823 4.17-51.748 0l-24.345-6c-19.368-4.777-39.84 0.274-54.77 13.5l-18.765 16.624c-13.053 11.563-28.894 19.876-45.82 24.050l-24.345 6c-19.368 4.773-35.152 18.758-42.225 37.408l-8.89 23.44c-6.183 16.305-16.349 31.032-29.399 42.588l-18.765 16.624c-14.93 13.226-22.407 32.946-20.002 52.744l3.022 24.887c2.1 17.305-0.058 35.070-6.237 51.376l-8.893 23.437c-7.070 18.65-4.529 39.586 6.806 56.004l14.232 20.628c9.909 14.347 16.255 31.080 18.358 48.395l3.022 24.883c2.405 19.805 14.385 37.161 32.045 46.43l22.197 11.651c15.435 8.1 28.83 19.964 38.739 34.318l14.239 20.628c11.332 16.417 30.002 26.218 49.95 26.218h25.070c17.434 0 34.806 4.282 50.248 12.386l22.197 11.651c17.661 9.269 38.75 9.266 56.413 0l22.197-11.651c15.442-8.104 32.818-12.386 50.248-12.386h25.070c19.947 0 38.617-9.801 49.95-26.215l14.239-20.635c9.909-14.351 23.305-26.215 38.739-34.315l22.197-11.651c17.661-9.269 29.64-26.625 32.045-46.426l3.022-24.887c2.104-17.312 8.449-34.044 18.355-48.388l14.239-20.635c11.332-16.417 13.873-37.35 6.803-55.997l-8.896-23.444c-6.176-16.302-8.334-34.068-6.234-51.369l3.022-24.89c2.402-19.802-5.075-39.519-20.005-52.744zM698.030 108.845c-11.837 4.682-25.259-0.82-30.409-12.467l-33.664-76.151-78.952 192.589c33.271-6.837 67.901 2.314 93.432 24.938l18.765 16.624c7.324 6.491 16.221 11.159 25.727 13.5l4.35 1.074 78.183-190.712-77.431 30.605zM356.375 96.378c-5.149 11.647-18.582 17.149-30.409 12.467l-77.428-30.609 78.183 190.712 4.35-1.071c9.506-2.341 18.402-7.013 25.727-13.5l18.765-16.62c19.995-17.718 45.573-27.197 71.699-27.194 7.24 0 14.517 0.772 21.733 2.256l-78.956-192.592-33.664 76.151zM512 325.21c143.402 0 260.070 116.669 260.070 260.070s-116.669 260.070-260.070 260.070-260.070-116.669-260.070-260.070 116.669-260.070 260.070-260.070zM512 797.918c117.248 0 212.641-95.39 212.641-212.641s-95.39-212.641-212.641-212.641-212.641 95.39-212.641 212.641 95.393 212.641 212.641 212.641zM401.372 449.623h221.26c13.097 0 23.715 10.617 23.715 23.715v140.458c0 7.443-3.493 14.452-9.435 18.934l-110.628 83.424c-8.456 6.376-20.103 6.376-28.559 0l-110.628-83.424c-5.942-4.482-9.435-11.491-9.435-18.934v-140.458c-0.003-13.097 10.611-23.715 23.711-23.715zM425.086 601.978l86.914 65.544 86.914-65.544v-104.923h-61.617v47.168c0 6.189-5.017 11.207-11.207 11.207h-28.18c-6.189 0-11.207-5.017-11.207-11.207v-47.168h-61.617v104.923z" />
<glyph unicode="&#xe929;" glyph-name="home3" d="M1024 352l-192 192v288h-128v-160l-192 192-512-512v-32h128v-320h320v192h128v-192h320v320h128z" />
<glyph unicode="&#xe942;" glyph-name="phone" d="M704 320c-64-64-64-128-128-128s-128 64-192 128-128 128-128 192 64 64 128 128-128 256-192 256-192-192-192-192c0-128 131.5-387.5 256-512s384-256 512-256c0 0 192 128 192 192s-192 256-256 192z" />
<glyph unicode="&#xe947;" glyph-name="location" d="M512 960c-176.732 0-320-143.268-320-320 0-320 320-704 320-704s320 384 320 704c0 176.732-143.27 320-320 320zM512 448c-106.040 0-192 85.96-192 192s85.96 192 192 192 192-85.96 192-192-85.96-192-192-192z" />
<glyph unicode="&#xe958;" glyph-name="mobile" d="M736 960h-448c-52.8 0-96-43.2-96-96v-832c0-52.8 43.2-96 96-96h448c52.8 0 96 43.2 96 96v832c0 52.8-43.2 96-96 96zM384 912h256v-32h-256v32zM512 0c-35.346 0-64 28.654-64 64s28.654 64 64 64 64-28.654 64-64-28.654-64-64-64zM768 192h-512v640h512v-640z" />
<glyph unicode="&#xe97c;" glyph-name="spinner3" d="M512 656.904c-32.964 0-59.686 26.724-59.686 59.686v179.060c0 32.964 26.722 59.686 59.686 59.686 32.962 0 59.688-26.722 59.688-59.686v-179.060c0-32.964-26.726-59.686-59.688-59.686zM512-36.956c-20.602 0-37.304 16.702-37.304 37.304v179.060c0 20.602 16.702 37.304 37.304 37.304 20.604 0 37.304-16.704 37.304-37.304v-179.060c0-20.602-16.7-37.304-37.304-37.304zM377.756 624.64c-19.34 0-38.146 10.034-48.512 27.988l-89.53 155.070c-15.452 26.764-6.282 60.986 20.482 76.438 26.762 15.45 60.986 6.284 76.438-20.482l89.53-155.072c15.452-26.764 6.282-60.986-20.482-76.438-8.81-5.084-18.432-7.504-27.926-7.504zM735.856 26.744c-11.602 0-22.886 6.022-29.108 16.792l-89.53 155.070c-9.27 16.056-3.77 36.592 12.29 45.864 16.056 9.264 36.59 3.77 45.864-12.292l89.532-155.068c9.27-16.058 3.768-36.592-12.292-45.864-5.286-3.048-11.060-4.502-16.756-4.502zM279.344 530.060c-8.86 0-17.838 2.256-26.064 7.006l-155.072 89.53c-24.978 14.422-33.538 46.362-19.116 71.342 14.42 24.978 46.364 33.538 71.342 19.116l155.070-89.53c24.98-14.422 33.538-46.362 19.116-71.34-9.668-16.756-27.226-26.124-45.276-26.124zM899.648 194.326c-5.064 0-10.196 1.29-14.894 4.004l-155.068 89.53c-14.274 8.24-19.164 26.494-10.924 40.768 8.242 14.276 26.496 19.166 40.766 10.924l155.070-89.532c14.274-8.24 19.164-26.492 10.924-40.766-5.53-9.574-15.562-14.928-25.874-14.928zM243.41 399.504h-179.060c-26.784 0-48.496 21.712-48.496 48.496s21.712 48.496 48.496 48.496h179.060c26.784 0 48.496-21.712 48.496-48.496s-21.712-48.496-48.496-48.496zM959.65 418.156c-0.002 0 0 0 0 0h-179.060c-16.482 0.002-29.844 13.364-29.844 29.844s13.364 29.844 29.844 29.844c0.002 0 0 0 0 0h179.060c16.482 0 29.844-13.362 29.844-29.844 0-16.48-13.364-29.844-29.844-29.844zM124.366 179.402c-15.472 0-30.518 8.028-38.81 22.39-12.362 21.41-5.026 48.79 16.384 61.148l155.072 89.532c21.41 12.368 48.79 5.028 61.15-16.384 12.362-21.412 5.026-48.79-16.384-61.15l-155.072-89.53c-7.050-4.070-14.748-6.006-22.34-6.006zM744.632 552.448c-10.314 0-20.346 5.352-25.874 14.926-8.24 14.274-3.35 32.526 10.924 40.768l155.070 89.528c14.272 8.236 32.526 3.352 40.768-10.922 8.24-14.274 3.35-32.526-10.924-40.768l-155.070-89.528c-4.7-2.714-9.83-4.004-14.894-4.004zM288.136 19.284c-6.962 0-14.016 1.774-20.48 5.504-19.626 11.332-26.35 36.428-15.020 56.054l89.53 155.070c11.33 19.628 36.426 26.352 56.054 15.022 19.626-11.332 26.35-36.43 15.020-56.054l-89.53-155.072c-7.598-13.166-21.392-20.524-35.574-20.524zM646.266 650.758c-5.062 0-10.196 1.29-14.894 4.002-14.274 8.242-19.164 26.494-10.924 40.766l89.534 155.070c8.24 14.274 26.492 19.166 40.766 10.922 14.274-8.242 19.164-26.494 10.924-40.766l-89.532-155.070c-5.53-9.57-15.56-14.924-25.874-14.924z" />
<glyph unicode="&#xe9bd;" glyph-name="menu" d="M64 768h896v-192h-896zM64 512h896v-192h-896zM64 256h896v-192h-896z" />
<glyph unicode="&#xea0c;" glyph-name="info" d="M448 656c0 26.4 21.6 48 48 48h32c26.4 0 48-21.6 48-48v-32c0-26.4-21.6-48-48-48h-32c-26.4 0-48 21.6-48 48v32zM640 192h-256v64h64v192h-64v64h192v-256h64zM512 960c-282.77 0-512-229.23-512-512s229.23-512 512-512 512 229.23 512 512-229.23 512-512 512zM512 32c-229.75 0-416 186.25-416 416s186.25 416 416 416 416-186.25 416-416-186.25-416-416-416z" />
<glyph unicode="&#xea0d;" glyph-name="cancel-circle" d="M512 960c-282.77 0-512-229.23-512-512s229.23-512 512-512 512 229.23 512 512-229.23 512-512 512zM512 32c-229.75 0-416 186.25-416 416s186.25 416 416 416 416-186.25 416-416-186.25-416-416-416zM672 704l-160-160-160 160-96-96 160-160-160-160 96-96 160 160 160-160 96 96-160 160 160 160z" />
<glyph unicode="&#xea0f;" glyph-name="cross" d="M1014.662 137.34c-0.004 0.004-0.008 0.008-0.012 0.010l-310.644 310.65 310.644 310.65c0.004 0.004 0.008 0.006 0.012 0.010 3.344 3.346 5.762 7.254 7.312 11.416 4.246 11.376 1.824 24.682-7.324 33.83l-146.746 146.746c-9.148 9.146-22.45 11.566-33.828 7.32-4.16-1.55-8.070-3.968-11.418-7.31 0-0.004-0.004-0.006-0.008-0.010l-310.648-310.652-310.648 310.65c-0.004 0.004-0.006 0.006-0.010 0.010-3.346 3.342-7.254 5.76-11.414 7.31-11.38 4.248-24.682 1.826-33.83-7.32l-146.748-146.748c-9.148-9.148-11.568-22.452-7.322-33.828 1.552-4.16 3.97-8.072 7.312-11.416 0.004-0.002 0.006-0.006 0.010-0.010l310.65-310.648-310.65-310.652c-0.002-0.004-0.006-0.006-0.008-0.010-3.342-3.346-5.76-7.254-7.314-11.414-4.248-11.376-1.826-24.682 7.322-33.83l146.748-146.746c9.15-9.148 22.452-11.568 33.83-7.322 4.16 1.552 8.070 3.97 11.416 7.312 0.002 0.004 0.006 0.006 0.010 0.010l310.648 310.65 310.648-310.65c0.004-0.002 0.008-0.006 0.012-0.008 3.348-3.344 7.254-5.762 11.414-7.314 11.378-4.246 24.684-1.826 33.828 7.322l146.746 146.748c9.148 9.148 11.57 22.454 7.324 33.83-1.552 4.16-3.97 8.068-7.314 11.414z" />
<glyph unicode="&#xea10;" glyph-name="checkmark" d="M864 832l-480-480-224 224-160-160 384-384 640 640z" />
<glyph unicode="&#xea3a;" glyph-name="arrow-up2" d="M877.254 557.254l-320 320c-24.992 24.994-65.514 24.994-90.508 0l-320-320c-24.994-24.994-24.994-65.516 0-90.51 24.994-24.996 65.516-24.996 90.51 0l210.744 210.746v-613.49c0-35.346 28.654-64 64-64s64 28.654 64 64v613.49l210.746-210.746c12.496-12.496 28.876-18.744 45.254-18.744s32.758 6.248 45.254 18.746c24.994 24.994 24.994 65.514 0 90.508z" />
<glyph unicode="&#xea3c;" glyph-name="arrow-right2" d="M621.254 82.746l320 320c24.994 24.992 24.994 65.516 0 90.51l-320 320c-24.994 24.992-65.516 24.992-90.51 0-24.994-24.994-24.994-65.516 0-90.51l210.746-210.746h-613.49c-35.346 0-64-28.654-64-64s28.654-64 64-64h613.49l-210.746-210.746c-12.496-12.496-18.744-28.876-18.744-45.254s6.248-32.758 18.744-45.254c24.994-24.994 65.516-24.994 90.51 0z" />
<glyph unicode="&#xea40;" glyph-name="arrow-left2" d="M402.746 82.746l-320 320c-24.994 24.992-24.994 65.516 0 90.51l320 320c24.994 24.992 65.516 24.992 90.51 0 24.994-24.994 24.994-65.516 0-90.51l-210.746-210.746h613.49c35.346 0 64-28.654 64-64s-28.654-64-64-64h-613.49l210.746-210.746c12.496-12.496 18.744-28.876 18.744-45.254s-6.248-32.758-18.744-45.254c-24.994-24.994-65.516-24.994-90.51 0z" />
</font>
</defs>
</svg>
